<svg width="100" height="35" viewBox="0 0 100 35" fill="none" xmlns="http://www.w3.org/2000/svg">
<rect width="100" height="35" fill="#FFFBFB"/>
<rect width="100" height="35" fill="#1E1E1E"/>
<path d="M3.1344 6.8831C3.13178 5.77853 4.02508 4.88098 5.12965 4.87835L24.1296 4.83322C27.4433 4.82535 30.136 7.50526 30.1438 10.819L30.189 29.8189C30.1916 30.9235 29.2983 31.821 28.1937 31.8236L5.19378 31.8783C4.08921 31.8809 3.19166 30.9876 3.18903 29.883L3.1344 6.8831Z" fill="#0CF953"/>
<path d="M4.3344 6.88072C4.33178 5.77616 5.22508 4.8786 6.32965 4.87598L24.3296 4.83322C27.6433 4.82535 30.336 7.50526 30.3438 10.819L30.3866 28.8189C30.3892 29.9235 29.4959 30.821 28.3913 30.8236L6.3914 30.8759C5.28684 30.8785 4.38928 29.9852 4.38666 28.8807L4.3344 6.88072Z" fill="#480CFD"/>
<path d="M5.1344 6.87835C5.13178 5.77378 6.02508 4.87623 7.12965 4.8736L24.1296 4.83322C27.4433 4.82535 30.136 7.50526 30.1438 10.819L30.1842 27.8189C30.1868 28.9235 29.2935 29.821 28.189 29.8237L7.18903 29.8735C6.08446 29.8762 5.18691 28.9829 5.18428 27.8783L5.1344 6.87835Z" fill="#FF0505" fill-opacity="0.9"/>
<path d="M6.10594 6.8475C6.10331 5.74294 6.99661 4.84538 8.10118 4.84276L24.1011 4.80475C27.4148 4.79688 30.1075 7.47679 30.1154 10.7905L30.1534 26.7904C30.156 27.895 29.2627 28.7926 28.1581 28.7952L8.15818 28.8427C7.05362 28.8453 6.15606 27.952 6.15344 26.8474L6.10594 6.8475Z" fill="#1E1E1E"/>
<mask id="mask0_0_1" style="mask-type:luminance" maskUnits="userSpaceOnUse" x="7" y="5" width="23" height="23">
<path d="M7.12965 7.81897C7.12965 6.7144 8.02508 5.81897 9.12965 5.81897H23.1297C26.4434 5.81897 29.1297 8.50526 29.1297 11.819V25.819C29.1297 26.9235 28.2342 27.819 27.1297 27.819H9.12965C8.02508 27.819 7.12965 26.9235 7.12965 25.819V7.81897Z" fill="white"/>
</mask>
<g mask="url(#mask0_0_1)">
<rect width="18.7319" height="18.6025" transform="matrix(0.999989 -0.00465705 0.00472208 0.999989 8.36057 7.01045)" fill="#D9D9D9"/>
<path d="M6.52305 6.27517C6.81339 6.56292 7.39993 7.26226 7.65399 7.78429C7.7906 8.06501 7.79038 9.03821 7.93672 10.393C7.99798 10.9601 7.98648 11.2874 8.05409 12.5968C8.1217 13.9062 8.25692 16.1891 8.30726 17.4323C8.37561 19.12 8.14336 19.5864 8.05496 20.0206C7.91125 20.7267 8.0257 21.3687 7.91916 21.9082C7.58091 23.621 7.2852 23.8684 7.09935 24.246C6.78409 24.8865 6.71973 25.4752 6.56256 25.7877C6.53777 25.837 6.46568 25.8461 6.49378 25.7697C6.75335 25.0635 7.61301 24.666 8.05321 24.5582C8.53372 24.4405 8.78609 24.2387 8.88327 24.1707C9.13941 23.9914 9.62318 24.0835 10.0628 23.9481C10.562 23.7943 10.8337 23.6766 11.9527 23.6472C12.3554 23.6367 13.3052 23.6179 14.8725 23.7237C15.6318 23.7749 16.3046 23.9638 16.7881 24.1004C17.5532 24.3165 17.9559 24.5666 18.325 24.7119C18.5473 24.7995 18.8873 24.7614 20.2734 24.6367C21.6596 24.512 24.0936 24.2626 25.5213 24.1341C26.949 24.0056 27.2967 24.0056 27.7753 24.092C28.8659 24.2887 29.5469 24.5864 29.635 24.6928C29.667 24.7314 29.5879 24.78 29.5097 24.7326C29.0997 24.484 29.1383 24.008 28.8468 23.0334C28.6859 22.4954 28.5752 21.5443 28.4473 20.9066C28.3194 20.2689 28.2228 19.9619 28.0668 19.2091C27.9108 18.4563 27.6983 17.2669 27.5888 16.4623C27.4279 15.2799 27.6532 14.5719 27.9263 14.0588C28.0338 13.8569 28.0448 13.7568 28.0741 12.8921C28.1034 12.0274 28.142 10.3968 28.1233 9.27859C28.0952 7.6016 27.9283 6.97334 27.8894 6.79981C27.8256 6.51558 27.8306 6.19901 27.8016 6.01473C27.7881 5.92867 27.6163 6.10019 27.1135 6.51351C26.6618 6.88481 25.7607 7.52153 24.8683 8.09733C23.9759 8.67314 23.1066 9.15273 22.5912 9.42857C21.9467 9.7735 21.7047 9.82126 21.51 9.7733C21.0736 9.66577 20.7511 8.97252 20.4359 8.45659C20.3887 8.37937 20.435 8.31097 19.7012 8.23337C18.9675 8.15576 17.48 8.05984 16.5979 7.99124C15.4821 7.90448 15.1292 7.80638 14.9053 7.70988C14.4533 7.51507 14.2511 7.05182 13.9681 6.91492C13.9038 6.88381 13.8414 6.87626 12.6621 6.88556C11.4829 6.89486 9.18415 6.93323 8.02892 6.92422C6.87368 6.91521 6.93164 6.85766 7.04988 6.79836" stroke="#F92323" stroke-opacity="0.1" stroke-width="2" stroke-linecap="round"/>
<path d="M4.37819 9.62824C4.73451 9.83005 5.48559 10.3516 5.86892 10.7889C6.07506 11.0241 6.33254 11.9631 6.83246 13.232C7.04173 13.7632 7.11728 14.0819 7.52923 15.3276C7.94119 16.5733 8.67612 18.7405 9.05387 19.9268C9.5667 21.5373 9.46611 22.0479 9.49581 22.4899C9.54411 23.2087 9.82453 23.7982 9.86459 24.3465C9.99177 26.0874 9.77199 26.4033 9.69265 26.8161C9.55807 27.5164 9.65187 28.1012 9.58297 28.4437C9.5721 28.4978 9.50497 28.5254 9.51184 28.4443C9.57528 27.6952 10.2994 27.0872 10.6956 26.8682C11.128 26.6292 11.3181 26.3687 11.3939 26.2777C11.5935 26.0378 12.0846 26.0003 12.4729 25.7548C12.9138 25.4761 13.1448 25.2916 14.2166 24.9711C14.6024 24.8557 15.5138 24.5895 17.0539 24.2823C17.8001 24.1335 18.4992 24.14 19.0019 24.1455C19.7973 24.1543 20.2521 24.2904 20.6466 24.3342C20.8842 24.3606 21.2022 24.2351 22.5065 23.7528C23.8109 23.2705 26.0932 22.3943 27.4366 21.8975C28.7801 21.4007 29.1156 21.3099 29.6001 21.2682C30.7045 21.1732 31.4403 21.2826 31.5535 21.3622C31.5946 21.3911 31.5311 21.4587 31.4432 21.4334C30.9818 21.3006 30.893 20.8312 30.3536 19.9671C30.0559 19.49 29.6973 18.6013 29.405 18.0194C29.1128 17.4376 28.9383 17.1667 28.5885 16.4811C28.2386 15.7955 27.7187 14.7034 27.4 13.9558C26.9317 12.857 26.9616 12.115 27.0892 11.5487C27.1395 11.3258 27.1236 11.2264 26.9229 10.3845C26.7222 9.54255 26.3277 7.95923 26.0135 6.88529C25.5424 5.27465 25.215 4.71207 25.1315 4.55482C24.9948 4.29723 24.9157 3.99052 24.8389 3.82029C24.8031 3.74079 24.6828 3.95112 24.3071 4.48121C23.9696 4.9574 23.2688 5.80702 22.5603 6.59561C21.8518 7.38419 21.1401 8.07391 20.7159 8.47463C20.1854 8.97573 19.9645 9.08501 19.764 9.08957C19.3145 9.09978 18.8197 8.51516 18.379 8.09971C18.313 8.03752 18.3396 7.95944 17.6111 8.07618C16.8826 8.19292 15.4221 8.4888 14.5529 8.65298C13.4534 8.86064 13.0869 8.85816 12.8453 8.82353C12.3576 8.75361 12.0399 8.35945 11.7306 8.30128C11.6604 8.28806 11.5981 8.29707 10.4629 8.61399C9.32758 8.93091 7.11989 9.56823 6.00292 9.86121C4.88596 10.1542 4.92664 10.0835 5.02502 9.99545" stroke="#35F923" stroke-opacity="0.1" stroke-width="2" stroke-linecap="round"/>
<path d="M5.28079 7.97114C5.60877 8.21579 6.28795 8.82688 6.61295 9.30854C6.78772 9.56755 6.92442 10.5312 7.25994 11.8524C7.40039 12.4055 7.43504 12.7311 7.68621 14.0183C7.93739 15.3055 8.39246 17.5473 8.61722 18.7712C8.92235 20.433 8.75799 20.927 8.73156 21.3692C8.68859 22.0883 8.89224 22.7082 8.86265 23.2571C8.76869 25 8.5107 25.2861 8.37979 25.6857C8.15773 26.3637 8.17684 26.9556 8.06517 27.2868C8.04756 27.339 7.97746 27.3581 7.99453 27.2785C8.1522 26.5432 8.94751 26.0304 9.36822 25.8625C9.82746 25.6793 10.049 25.4445 10.1356 25.3637C10.364 25.1506 10.856 25.1747 11.2722 24.9795C11.7449 24.758 11.9974 24.6038 13.1013 24.4194C13.4986 24.3531 14.4364 24.2027 16.0032 24.09C16.7622 24.0354 17.4551 24.129 17.953 24.1972C18.741 24.3051 19.175 24.4968 19.5609 24.5895C19.7933 24.6453 20.1246 24.5604 21.4796 24.2446C22.8346 23.9288 25.2096 23.3441 26.6053 23.0188C28.0009 22.6935 28.3452 22.6452 28.8312 22.6643C29.9388 22.7078 30.655 22.9081 30.7572 23.0012C30.7943 23.035 30.7228 23.0941 30.6388 23.058C30.1979 22.8688 30.1691 22.392 29.7433 21.4674C29.5083 20.957 29.2649 20.0307 29.0485 19.4169C28.8321 18.8032 28.6933 18.5127 28.4329 17.7889C28.1725 17.0651 27.7948 15.9169 27.5732 15.1354C27.2475 13.9869 27.371 13.2545 27.5692 12.7087C27.6472 12.4938 27.6441 12.3932 27.5514 11.5329C27.4587 10.6726 27.2676 9.05259 27.0917 7.94798C26.8279 6.29134 26.5743 5.69239 26.5114 5.52597C26.4083 5.25336 26.3686 4.93922 26.314 4.76077C26.2885 4.67743 26.1426 4.87109 25.7028 5.35013C25.3078 5.78046 24.5051 6.53597 23.7025 7.22995C22.8998 7.92393 22.1066 8.51944 21.635 8.86409C21.0453 9.29506 20.8124 9.37593 20.6129 9.35545C20.1657 9.30953 19.7488 8.66783 19.364 8.20071C19.3065 8.13079 19.3427 8.05663 18.6052 8.0816C17.8677 8.10657 16.3814 8.21798 15.4982 8.27246C14.3812 8.34136 14.0179 8.2932 13.7826 8.22871C13.3077 8.09853 13.0423 7.66787 12.7428 7.57158C12.6748 7.54971 12.6119 7.55089 11.4455 7.72372C10.2792 7.89656 8.00837 8.25351 6.8632 8.40488C5.71803 8.55625 5.76732 8.49122 5.87606 8.4161" stroke="#5123F9" stroke-opacity="0.1" stroke-width="2" stroke-linecap="round"/>
<path d="M4.15187 10.1394C4.51552 10.3279 5.28565 10.8213 5.68514 11.2441C5.89997 11.4715 6.19252 12.4003 6.73974 13.6498C6.96881 14.1728 7.05627 14.4885 7.51471 15.7181C7.97315 16.9477 8.78895 19.0862 9.21097 20.2577C9.78392 21.8481 9.70257 22.362 9.74885 22.8027C9.8241 23.5191 10.1265 24.0979 10.1871 24.6443C10.3795 26.3792 10.1718 26.7031 10.108 27.1186C9.99979 27.8233 10.1155 28.4043 10.0595 28.7491C10.0507 28.8035 9.98461 28.8336 9.98843 28.7523C10.0237 28.0014 10.7245 27.367 11.1122 27.1335C11.5354 26.8786 11.7155 26.6112 11.7878 26.5175C11.9783 26.2704 12.4677 26.2147 12.8465 25.9551C13.2766 25.6602 13.5005 25.4672 14.5595 25.1073C14.9407 24.9777 15.8414 24.678 17.369 24.3139C18.109 24.1376 18.808 24.1182 19.3105 24.1051C20.1056 24.0844 20.5652 24.2036 20.9612 24.2328C21.1996 24.2503 21.5126 24.1131 22.7979 23.5828C24.0833 23.0526 26.3311 22.0925 27.655 21.5463C28.9788 21.0001 29.3107 20.8969 29.7933 20.8373C30.8933 20.7015 31.6328 20.7836 31.7489 20.859C31.791 20.8863 31.7301 20.9561 31.6413 20.9341C31.1752 20.8185 31.0688 20.3528 30.4975 19.5092C30.182 19.0435 29.7903 18.1687 29.4764 17.5981C29.1625 17.0274 28.978 16.7631 28.6026 16.091C28.2273 15.4188 27.6667 14.3468 27.3202 13.6115C26.8109 12.5307 26.8129 11.7882 26.9192 11.2176C26.961 10.993 26.9415 10.8942 26.7093 10.0603C26.4771 9.2264 26.0234 7.65879 25.6692 6.59723C25.1379 5.00516 24.7896 4.45509 24.7003 4.30104C24.5539 4.0487 24.4634 3.74513 24.3803 3.57786C24.3415 3.49974 24.2292 3.71438 23.8737 4.25801C23.5543 4.74636 22.8859 5.62135 22.2075 6.43562C21.5291 7.24989 20.8438 7.96548 20.4349 8.38164C19.9235 8.90203 19.7069 9.01942 19.5068 9.03139C19.0579 9.05824 18.5416 8.49235 18.0855 8.09351C18.0173 8.03381 18.0409 7.95479 17.3173 8.09843C16.5937 8.24206 15.1453 8.59182 14.2828 8.78808C13.192 9.0363 12.8256 9.0474 12.5829 9.02174C12.0929 8.96993 11.7607 8.5878 11.4494 8.54112C11.3786 8.53052 11.3168 8.54183 10.1942 8.90057C9.07163 9.2593 6.8894 9.97792 5.78422 10.3121C4.67903 10.6462 4.71703 10.5741 4.81203 10.4824" stroke="#F92323" stroke-opacity="0.1" stroke-width="2" stroke-linecap="round"/>
<path d="M3.11366 13.9757C3.51442 14.0626 4.38809 14.3375 4.88548 14.6411C5.15295 14.8044 5.68115 15.6241 6.53996 16.6867C6.89947 17.1316 7.06745 17.4133 7.83533 18.4799C8.60321 19.5465 9.95654 21.3967 10.6739 22.4167C11.6478 23.8015 11.7054 24.3187 11.8667 24.7317C12.129 25.4033 12.574 25.8827 12.7772 26.3941C13.4222 28.0177 13.3076 28.3845 13.356 28.802C13.4382 29.5102 13.7037 30.0405 13.741 30.3878C13.7469 30.4425 13.6911 30.4888 13.6733 30.4094C13.5085 29.6757 14.0167 28.8806 14.3288 28.5541C14.6696 28.1977 14.7726 27.8927 14.8175 27.7833C14.9359 27.4952 15.3933 27.3137 15.69 26.9642C16.0269 26.5674 16.1919 26.3228 17.1183 25.6989C17.4518 25.4744 18.2415 24.95 19.6189 24.1999C20.2862 23.8365 20.9554 23.6352 21.4367 23.4914C22.1984 23.2638 22.6734 23.2587 23.0631 23.1835C23.2978 23.1382 23.5635 22.924 24.6632 22.0768C25.7629 21.2295 27.6774 19.7162 28.81 18.8435C29.9427 17.9709 30.2355 17.7847 30.6854 17.6011C31.7107 17.1828 32.4459 17.0689 32.5778 17.1113C32.6257 17.1267 32.5855 17.21 32.494 17.2119C32.0137 17.2221 31.7877 16.8005 31.0131 16.1358C30.5854 15.7689 29.9759 15.0272 29.5219 14.5586C29.0679 14.09 28.8199 13.8832 28.2798 13.3328C27.7397 12.7823 26.915 11.8944 26.386 11.2754C25.6085 10.3657 25.4138 9.64878 25.3653 9.0705C25.3461 8.84286 25.3011 8.75269 24.8563 8.00875C24.4114 7.26482 23.5587 5.87085 22.9358 4.93916C22.0016 3.54186 21.52 3.10208 21.393 2.97678C21.185 2.77154 21.0173 2.50229 20.8928 2.36261C20.8347 2.29737 20.7832 2.53378 20.5841 3.15113C20.4053 3.7057 19.9921 4.72443 19.5531 5.68721C19.1142 6.64999 18.6425 7.51936 18.3582 8.02765C18.0026 8.66326 17.8247 8.83308 17.6348 8.8969C17.2089 9.04001 16.5608 8.62888 16.0153 8.36316C15.9336 8.32338 15.9354 8.24099 15.2753 8.56852C14.6152 8.89606 13.3105 9.61174 12.5303 10.0263C11.5435 10.5507 11.193 10.6571 10.952 10.6957C10.4656 10.7736 10.0438 10.4917 9.73114 10.528C9.6601 10.5362 9.60342 10.5633 8.61533 11.2026C7.62725 11.8418 5.71209 13.105 4.73428 13.716C3.75647 14.327 3.77402 14.2475 3.84142 14.1342" stroke="#35F923" stroke-opacity="0.1" stroke-width="2" stroke-linecap="round"/>
<path d="M3.47654 12.1265C3.86314 12.2627 4.69513 12.6444 5.15019 13.0076C5.39489 13.2029 5.81526 14.082 6.5329 15.2434C6.83332 15.7295 6.96434 16.03 7.59128 17.1839C8.21821 18.3378 9.32687 20.3421 9.90957 21.4435C10.7007 22.9388 10.6924 23.459 10.8002 23.8889C10.9755 24.5879 11.3564 25.119 11.4933 25.6517C11.9279 27.3429 11.7678 27.6924 11.7631 28.1127C11.7551 28.8255 11.9514 29.3847 11.9445 29.7339C11.9434 29.789 11.8822 29.828 11.8745 29.747C11.8038 28.9985 12.4085 28.2731 12.7595 27.9881C13.1427 27.677 13.2834 27.3872 13.3418 27.2844C13.4957 27.0133 13.9724 26.8903 14.311 26.5806C14.6954 26.2289 14.89 26.0068 15.888 25.5034C16.2472 25.3222 17.0969 24.9005 18.5583 24.328C19.2662 24.0507 19.9556 23.9345 20.4513 23.8519C21.2358 23.721 21.7076 23.7753 22.1038 23.7492C22.3423 23.7336 22.633 23.5542 23.8311 22.8508C25.0292 22.1474 27.1199 20.8848 28.3539 20.1603C29.588 19.4358 29.902 19.2876 30.3716 19.1616C31.4417 18.8745 32.1854 18.8531 32.311 18.9117C32.3566 18.9329 32.3061 19.0105 32.215 19.001C31.7373 18.9513 31.5664 18.5048 30.882 17.7488C30.5041 17.3314 29.9931 16.5196 29.602 15.9981C29.2109 15.4766 28.991 15.2405 28.5248 14.627C28.0586 14.0136 27.3526 13.0298 26.9061 12.3498C26.2498 11.3503 26.1473 10.6148 26.1722 10.035C26.1821 9.80683 26.1488 9.71175 25.8016 8.91824C25.4543 8.12472 24.7845 6.63543 24.2844 5.63344C23.5343 4.1307 23.1121 3.63434 23.002 3.4942C22.8216 3.26464 22.6892 2.97661 22.5834 2.82251C22.534 2.75055 22.453 2.97866 22.1774 3.56629C21.9299 4.09417 21.3912 5.05331 20.834 5.95373C20.2767 6.85415 19.6988 7.65781 19.3525 8.12663C18.9194 8.71286 18.7214 8.85915 18.5249 8.89878C18.0843 8.98765 17.4934 8.49895 16.9857 8.1673C16.9097 8.11765 16.922 8.03614 16.2257 8.27877C15.5294 8.52139 14.1444 9.06869 13.318 9.3827C12.2727 9.77985 11.9116 9.84167 11.6676 9.84994C11.1752 9.86662 10.7924 9.53435 10.4776 9.53132C10.4061 9.53063 10.3464 9.55042 9.28532 10.0614C8.22422 10.5724 6.1645 11.5867 5.11716 12.071C4.06983 12.5552 4.0973 12.4785 4.17848 12.3745" stroke="#5123F9" stroke-opacity="0.1" stroke-width="2" stroke-linecap="round"/>
<path d="M4.22917 9.95894C4.5903 10.1521 5.35386 10.6555 5.74774 11.0835C5.95955 11.3136 6.23983 12.2462 6.77051 13.5027C6.99267 14.0287 7.07596 14.3455 7.51814 15.5809C7.96032 16.8163 8.74784 18.9653 9.15438 20.1421C9.7063 21.7398 9.61818 22.2527 9.65864 22.6939C9.72443 23.4113 10.0191 23.9939 10.0725 24.5411C10.2421 26.2784 10.0301 26.5995 9.96082 27.0141C9.84334 27.7174 9.95137 28.2998 9.89083 28.6439C9.88128 28.6981 9.81484 28.7274 9.81973 28.6462C9.8649 27.8957 10.574 27.2705 10.9647 27.0421C11.3912 26.7927 11.5749 26.5277 11.6484 26.4349C11.8422 26.1903 12.3322 26.141 12.7144 25.8863C13.1484 25.5971 13.3749 25.407 14.4385 25.0609C14.8214 24.9363 15.726 24.6483 17.2582 24.3042C18.0005 24.1375 18.6996 24.1271 19.2023 24.1206C19.9976 24.1102 20.4556 24.2354 20.8511 24.2697C21.0893 24.2904 21.4041 24.1572 22.6963 23.6438C23.9886 23.1303 26.2488 22.1995 27.5798 21.6705C28.9108 21.1416 29.2439 21.0428 29.7273 20.9895C30.829 20.868 31.5673 20.9596 31.6824 21.0365C31.7242 21.0644 31.6624 21.1335 31.5738 21.1103C31.1094 20.9887 31.0091 20.5216 30.4489 19.6706C30.1397 19.2008 29.7595 18.321 29.4531 17.7463C29.1468 17.1717 28.9658 16.905 28.5993 16.228C28.2329 15.5511 27.6865 14.4718 27.3497 13.7321C26.8548 12.6448 26.8665 11.9024 26.9803 11.3332C27.0251 11.1091 27.0069 11.0101 26.7857 10.1733C26.5645 9.3364 26.1316 7.76302 25.7913 6.69694C25.2811 5.0981 24.9401 4.54354 24.8528 4.38834C24.7098 4.13412 24.6233 3.8294 24.5424 3.66107C24.5047 3.58245 24.3895 3.79561 24.0269 4.33457C23.7011 4.81872 23.0212 5.68494 22.3321 6.49031C21.643 7.29569 20.9483 8.00231 20.5339 8.41311C20.0158 8.92681 19.7977 9.04137 19.5973 9.05074C19.1482 9.07175 18.6394 8.49919 18.1886 8.09444C18.1212 8.03386 18.1458 7.95516 17.4204 8.08937C16.695 8.22358 15.2421 8.55447 14.3771 8.73949C13.283 8.97351 12.9166 8.97983 12.6742 8.95102C12.185 8.89284 11.8578 8.50643 11.5471 8.4557C11.4765 8.44418 11.4146 8.45468 10.2873 8.79879C9.16012 9.14289 6.9686 9.83306 5.8591 10.1528C4.7496 10.4725 4.78854 10.4009 4.88475 10.3105" stroke="#F92323" stroke-opacity="0.1" stroke-width="2" stroke-linecap="round"/>
<path d="M3.14045 13.7814C3.54003 13.8735 4.41 14.1597 4.90334 14.4698C5.16863 14.6365 5.68597 15.4631 6.53069 16.5368C6.88431 16.9862 7.04855 17.2701 7.8023 18.3466C8.55605 19.4231 9.88486 21.2908 10.5887 22.32C11.5443 23.7174 11.595 24.2352 11.7509 24.6503C12.0043 25.3253 12.4429 25.8104 12.6393 26.3244C13.2629 27.9563 13.1434 28.3215 13.1864 28.7396C13.2593 29.4488 13.5177 29.9825 13.5504 30.3303C13.5555 30.3851 13.4992 30.4307 13.4824 30.351C13.3273 29.6152 13.8459 28.8269 14.1624 28.5044C14.5078 28.1525 14.6149 27.8488 14.6612 27.7401C14.7834 27.4535 15.2432 27.278 15.5444 26.9324C15.8865 26.54 16.0547 26.2975 16.9893 25.6858C17.3257 25.4656 18.1222 24.9515 19.5094 24.2194C20.1814 23.8647 20.8532 23.6722 21.3364 23.5346C22.1011 23.3169 22.5761 23.318 22.9668 23.2479C23.202 23.2056 23.4705 22.995 24.5813 22.1621C25.6921 21.3292 27.6263 19.8409 28.7704 18.9831C29.9145 18.1252 30.2097 17.9428 30.662 17.7652C31.6928 17.3602 32.4294 17.2559 32.5607 17.3C32.6084 17.316 32.5671 17.3988 32.4755 17.3995C31.9952 17.4035 31.7748 16.979 31.009 16.3043C30.5862 15.9318 29.9865 15.1822 29.5387 14.7078C29.091 14.2333 28.8457 14.0233 28.3129 13.4659C27.7801 12.9084 26.9672 12.0098 26.4464 11.384C25.681 10.4643 25.4958 9.74491 25.4548 9.16605C25.4387 8.93818 25.3949 8.84743 24.9599 8.09777C24.5249 7.34812 23.6906 5.94317 23.0801 5.00346C22.1644 3.59413 21.6886 3.14812 21.5633 3.02118C21.358 2.81325 21.1938 2.54185 21.0712 2.40056C21.014 2.33457 20.9594 2.57029 20.7522 3.18499C20.566 3.73719 20.1394 4.75046 19.6878 5.70745C19.2362 6.66443 18.7531 7.52759 18.4621 8.03214C18.0982 8.66307 17.9181 8.83056 17.7273 8.89191C17.2996 9.02947 16.657 8.60994 16.115 8.33714C16.0338 8.29631 16.0368 8.21394 15.3724 8.53287C14.708 8.85179 13.3939 9.55043 12.6084 9.95483C11.6148 10.4663 11.2629 10.5681 11.0214 10.6036C10.534 10.6752 10.116 10.3879 9.80283 10.42C9.73169 10.4274 9.67466 10.4537 8.67822 11.08C7.68179 11.7064 5.75014 12.9446 4.76435 13.5428C3.77857 14.141 3.79717 14.0617 3.86605 13.9494" stroke="#35F923" stroke-opacity="0.1" stroke-width="2" stroke-linecap="round"/>
<path d="M3.52768 11.9371C3.91245 12.0783 4.73934 12.4707 5.18957 12.8398C5.43168 13.0383 5.84041 13.9229 6.54268 15.0934C6.83666 15.5834 6.9637 15.8856 7.57537 17.0475C8.18703 18.2095 9.26916 20.2281 9.83728 21.337C10.6086 22.8424 10.5935 23.3625 10.6956 23.7937C10.8617 24.4949 11.2355 25.031 11.3653 25.5654C11.7776 27.2621 11.6129 27.6095 11.6026 28.0297C11.5853 28.7423 11.7742 29.3041 11.7626 29.6531C11.7608 29.7082 11.6991 29.7464 11.6926 29.6653C11.6317 28.9159 12.2459 28.1985 12.6007 27.9181C12.9879 27.612 13.1325 27.3241 13.1922 27.222C13.3496 26.9529 13.828 26.8361 14.1706 26.5308C14.5596 26.1842 14.7571 25.9646 15.7616 25.4743C16.1232 25.2978 16.9784 24.8871 18.4472 24.3337C19.1587 24.0657 19.8496 23.9585 20.3464 23.8822C21.1325 23.7616 21.6035 23.822 22 23.8011C22.2388 23.7885 22.5317 23.613 23.7391 22.9252C24.9464 22.2375 27.0535 21.0022 28.297 20.2938C29.5405 19.5854 29.8565 19.4413 30.3276 19.3214C31.4015 19.0483 32.1454 19.0366 32.2702 19.0967C32.3154 19.1186 32.264 19.1955 32.173 19.1848C31.696 19.1289 31.531 18.6802 30.8566 17.9154C30.4843 17.4931 29.9841 16.6747 29.5999 16.1482C29.2157 15.6216 28.9989 15.3827 28.5408 14.7632C28.0827 14.1437 27.3898 13.1509 26.9523 12.4651C26.3092 11.4572 26.2164 10.7204 26.249 10.141C26.2619 9.91294 26.2299 9.81744 25.8931 9.01948C25.5563 8.22151 24.9063 6.72363 24.4194 5.71522C23.6892 4.20286 23.2736 3.70105 23.1653 3.55949C22.9879 3.3276 22.8594 3.03788 22.7556 2.88241C22.7072 2.80981 22.6232 3.03685 22.3399 3.62085C22.0854 4.14546 21.5341 5.09752 20.965 5.99061C20.396 6.8837 19.8075 7.67977 19.455 8.14404C19.0143 8.7246 18.8144 8.8683 18.6173 8.90537C18.1756 8.98849 17.5912 8.49215 17.0879 8.15392C17.0126 8.1033 17.0259 8.02195 16.3265 8.2555C15.6271 8.48905 14.235 9.01828 13.4045 9.32151C12.3541 9.70504 11.9921 9.76215 11.7481 9.76724C11.2555 9.77752 10.8771 9.4403 10.5624 9.43318C10.4909 9.43156 10.4309 9.45056 9.3632 9.9477C8.29546 10.4448 6.22253 11.4323 5.1689 11.9029C4.11527 12.3734 4.14376 12.2971 4.2263 12.1942" stroke="#5123F9" stroke-opacity="0.1" stroke-width="2" stroke-linecap="round"/>
<path d="M4.11244 10.2341C4.47738 10.4201 5.2509 10.9082 5.6533 11.3283C5.86968 11.5542 6.16863 12.481 6.72444 13.7268C6.95711 14.2483 7.04674 14.5634 7.51364 15.7898C7.98054 17.0162 8.81105 19.1491 9.24113 20.3177C9.82502 21.9042 9.74721 22.4187 9.79653 22.859C9.87671 23.5749 10.1831 24.1516 10.2474 24.6976C10.4518 26.4312 10.2463 26.7565 10.1854 27.1724C10.082 27.8778 10.2017 28.458 10.1481 28.8032C10.1397 28.8576 10.0738 28.8882 10.0771 28.8069C10.1072 28.0557 10.8036 27.4166 11.1897 27.1805C11.6111 26.9227 11.7894 26.6541 11.861 26.5599C12.0498 26.3115 12.5388 26.2525 12.9158 25.9903C13.3439 25.6925 13.5665 25.498 14.623 25.1309C15.0033 24.9987 15.9019 24.6929 17.4269 24.3185C18.1657 24.1371 18.8645 24.1129 19.3669 24.0964C20.1619 24.0703 20.6223 24.1864 21.0184 24.2129C21.257 24.2288 21.569 24.0895 22.8507 23.5505C24.1324 23.0115 26.3735 22.0362 27.6936 21.481C29.0136 20.9258 29.3448 20.8204 29.827 20.7575C30.9261 20.6143 31.666 20.6913 31.7826 20.7659C31.825 20.7929 31.7646 20.8632 31.6756 20.8418C31.2088 20.7294 31.0991 20.2643 30.522 19.4246C30.2033 18.9611 29.8056 18.089 29.4878 17.5205C29.1699 16.952 28.9836 16.689 28.6036 16.0194C28.2237 15.3498 27.6557 14.2816 27.3041 13.5486C26.7875 12.4714 26.7843 11.7289 26.8867 11.1576C26.927 10.9327 26.9067 10.834 26.6688 10.0017C26.4308 9.16941 25.9664 7.60491 25.6048 6.54578C25.0626 4.95736 24.7106 4.40967 24.6202 4.25622C24.4721 4.00489 24.3795 3.70194 24.2952 3.53524C24.2559 3.45739 24.1451 3.67278 23.7933 4.21881C23.4773 4.70933 22.8149 5.58883 22.1421 6.40769C21.4693 7.22655 20.789 7.94678 20.3829 8.36571C19.8752 8.88957 19.6594 9.00842 19.4593 9.02175C19.0107 9.05166 18.4905 8.48928 18.0317 8.09355C17.963 8.03431 17.9861 7.95514 17.2635 8.10369C16.5409 8.25223 15.095 8.61182 14.2339 8.81394C13.1447 9.06957 12.7785 9.08315 12.5356 9.05914C12.0453 9.01066 11.7104 8.6308 11.3988 8.58624C11.328 8.57611 11.2662 8.58784 10.1461 8.9542C9.02603 9.32055 6.8488 10.054 5.74595 10.3956C4.64309 10.7373 4.68058 10.6649 4.77496 10.5726" stroke="#F92323" stroke-opacity="0.2" stroke-width="2" stroke-linecap="round"/>
<path d="M3.10069 14.0773C3.50204 14.1615 4.37758 14.4304 4.87705 14.7307C5.14564 14.8921 5.67947 15.7083 6.54558 16.765C6.90815 17.2074 7.07806 17.488 7.85327 18.5493C8.62848 19.6107 9.99453 21.4517 10.7189 22.4668C11.7023 23.8449 11.7635 24.3617 11.9276 24.7736C12.1946 25.4434 12.6428 25.9198 12.8495 26.4298C13.5058 28.049 13.3936 28.4165 13.4449 28.8336C13.532 29.5413 13.8011 30.0698 13.8408 30.4168C13.8471 30.4715 13.7916 30.5182 13.7733 30.4389C13.6034 29.7063 14.1061 28.9078 14.416 28.5792C14.7543 28.2205 14.8553 27.9147 14.8994 27.8051C15.0158 27.5162 15.472 27.3316 15.7663 26.9801C16.1004 26.581 16.2637 26.3353 17.1858 25.7051C17.5177 25.4783 18.3037 24.9486 19.676 24.1891C20.3407 23.8212 21.0085 23.6154 21.4889 23.4683C22.249 23.2355 22.7239 23.2272 23.1131 23.1494C23.3475 23.1025 23.6117 22.8865 24.7055 22.0318C25.7994 21.1771 27.7033 19.6508 28.83 18.7705C29.9566 17.8901 30.2481 17.7019 30.6968 17.5154C31.7192 17.0901 32.4535 16.9712 32.5858 17.0127C32.6338 17.0278 32.5941 17.1113 32.5026 17.1139C32.0224 17.1273 31.7935 16.7073 31.0143 16.0479C30.5842 15.6839 29.9695 14.9463 29.5123 14.4808C29.0551 14.0153 28.8057 13.8102 28.2618 13.2634C27.7179 12.7166 26.8871 11.8343 26.3539 11.219C25.5701 10.3146 25.3705 9.599 25.318 9.02106C25.2973 8.79356 25.2516 8.70369 24.8017 7.9628C24.3517 7.22191 23.4894 5.83376 22.8601 4.90632C21.9163 3.5154 21.4317 3.0789 21.3038 2.95447C21.0944 2.75065 20.9248 2.48255 20.7994 2.34371C20.7409 2.27887 20.691 2.51563 20.4962 3.13431C20.3211 3.69008 19.915 4.7116 19.4827 5.67734C19.0504 6.64307 18.5847 7.51563 18.3039 8.02584C17.9527 8.66385 17.776 8.83487 17.5865 8.89999C17.1616 9.04599 16.5107 8.63926 15.9633 8.37726C15.8814 8.33804 15.8827 8.25563 15.2248 8.58765C14.567 8.91966 13.2672 9.64418 12.4899 10.0641C11.5068 10.5951 11.157 10.7039 10.9163 10.7441C10.4304 10.8254 10.0067 10.5464 9.69426 10.5847C9.62328 10.5935 9.56679 10.6209 8.58313 11.2669C7.59947 11.9128 5.69306 13.189 4.71948 13.8066C3.7459 14.4242 3.76291 14.3446 3.82952 14.2309" stroke="#35F923" stroke-opacity="0.2" stroke-width="2" stroke-linecap="round"/>
<path d="M3.45082 12.2257C3.83835 12.3592 4.67295 12.7353 5.1305 13.0954C5.37655 13.2891 5.80296 14.1653 6.52858 15.3217C6.83234 15.8058 6.96543 16.1054 7.6003 17.255C8.23517 18.4046 9.35761 20.4014 9.94788 21.4988C10.7493 22.9887 10.7446 23.5089 10.8554 23.9381C11.0355 24.6359 11.42 25.1644 11.5605 25.6961C12.0068 27.3843 11.8491 27.7349 11.8473 28.1552C11.8442 28.8681 12.0444 29.4259 12.0398 29.7752C12.0391 29.8303 11.9782 29.8697 11.97 29.7887C11.8941 29.0407 12.4938 28.3113 12.8429 28.0239C13.2238 27.7102 13.3626 27.4195 13.4203 27.3162C13.5723 27.0441 14.0482 26.9178 14.3846 26.6058C14.7666 26.2516 14.9596 26.0281 15.9541 25.518C16.3121 25.3343 17.1589 24.9068 18.6163 24.3245C19.3223 24.0424 20.0108 23.9215 20.506 23.8355C21.2895 23.6993 21.7617 23.7503 22.1577 23.7216C22.3961 23.7043 22.6855 23.523 23.8788 22.8115C25.072 22.1 27.154 20.8232 28.383 20.0903C29.612 19.3574 29.925 19.2071 30.3937 19.0779C31.4618 18.7836 32.2054 18.7571 32.3313 18.8148C32.377 18.8358 32.3271 18.9137 32.236 18.9048C31.758 18.8583 31.584 18.413 30.8943 17.6617C30.5136 17.2469 29.9971 16.4385 29.6024 15.9197C29.2077 15.4009 28.9862 15.1663 28.5157 14.556C28.0453 13.9457 27.3326 12.9668 26.8814 12.2898C26.2182 11.2948 26.1106 10.56 26.1316 9.9801C26.1398 9.75183 26.1059 9.65698 25.7532 8.86584C25.4005 8.0747 24.7205 6.58999 24.2135 5.59142C23.4531 4.09382 23.0275 3.60034 22.9163 3.46095C22.7343 3.23262 22.6 2.9455 22.4932 2.79212C22.4432 2.72049 22.3638 2.94915 22.0923 3.53864C21.8484 4.06819 21.3163 5.03097 20.7653 5.93515C20.2143 6.83933 19.642 7.6469 19.2989 8.11806C18.8698 8.70722 18.6729 8.85485 18.4766 8.89582C18.0366 8.98768 17.4423 8.50301 16.9324 8.17481C16.8561 8.12568 16.8678 8.04409 16.1732 8.29144C15.4786 8.53879 14.0974 9.09548 13.2732 9.4151C12.2307 9.81935 11.8699 9.88362 11.626 9.89354C11.1337 9.91357 10.7486 9.58391 10.4338 9.58302C10.3623 9.58281 10.3028 9.603 9.24524 10.1212C8.18768 10.6394 6.135 11.6677 5.09102 12.159C4.04705 12.6503 4.074 12.5735 4.15446 12.469" stroke="#5123F9" stroke-opacity="0.2" stroke-width="2" stroke-linecap="round"/>
<path d="M3.0423 14.6327C3.44653 14.702 4.33157 14.9383 4.84196 15.2198C5.11642 15.3712 5.68053 16.167 6.58571 17.191C6.96464 17.6196 7.14497 17.8937 7.95949 18.9256C8.77401 19.9575 10.2082 21.7466 10.9702 22.7342C12.0047 24.075 12.0852 24.5891 12.2647 24.9947C12.5566 25.6541 13.0225 26.1136 13.2482 26.6156C13.9647 28.2093 13.8664 28.5808 13.9334 28.9957C14.047 29.6996 14.3358 30.2178 14.3885 30.5631C14.3968 30.6176 14.3431 30.6663 14.3218 30.5877C14.1245 29.8619 14.5969 29.0454 14.8943 28.7055C15.2189 28.3345 15.3083 28.0252 15.3483 27.9141C15.4537 27.621 15.9026 27.4197 16.1835 27.0575C16.5025 26.6463 16.6564 26.3947 17.5542 25.7309C17.8774 25.4919 18.643 24.9335 19.9857 24.1237C20.6362 23.7314 21.2958 23.5011 21.7703 23.3362C22.5211 23.0755 22.9954 23.0496 23.3814 22.9574C23.6139 22.9018 23.8698 22.6763 24.9308 21.7817C25.9918 20.8871 27.8371 19.2913 28.9299 18.3699C30.0227 17.4484 30.307 17.2496 30.7483 17.0465C31.754 16.5837 32.4834 16.4376 32.6171 16.4742C32.6656 16.4875 32.6291 16.5725 32.5378 16.5784C32.0584 16.6096 31.8139 16.1984 31.0105 15.5683C30.567 15.2204 29.9251 14.5061 29.4507 14.0579C28.9764 13.6097 28.7194 13.414 28.1554 12.8877C27.5914 12.3614 26.728 11.5105 26.172 10.9153C25.3548 10.0405 25.1285 9.33286 25.0543 8.75727C25.0251 8.53069 24.9761 8.44258 24.4986 7.71886C24.0212 6.99515 23.1073 5.63989 22.4436 4.73641C21.4483 3.3814 20.9476 2.96315 20.8152 2.84354C20.5982 2.64762 20.4187 2.38598 20.2882 2.25189C20.2272 2.18926 20.1862 2.4277 20.0148 3.05316C19.8608 3.61503 19.4933 4.65088 19.0975 5.63195C18.7018 6.61302 18.2692 7.50222 18.0077 8.02247C17.6808 8.67304 17.5106 8.85049 17.3236 8.92258C16.9045 9.08421 16.2388 8.70187 15.682 8.46031C15.5986 8.42416 15.5968 8.34176 14.9519 8.6979C14.307 9.05405 13.0353 9.8262 12.2743 10.2746C11.3118 10.8417 10.9663 10.9633 10.7273 11.0124C10.2448 11.1116 9.81093 10.8485 9.50015 10.8984C9.42955 10.9097 9.37413 10.9393 8.41541 11.6212C7.45669 12.3031 5.59952 13.649 4.64981 14.3023C3.70009 14.9555 3.7141 14.8753 3.77639 14.7592" stroke="#F92323" stroke-opacity="0.2" stroke-width="2" stroke-linecap="round"/>
<path d="M3.23291 18.6006C3.64125 18.5619 4.55772 18.5588 5.1247 18.6971C5.42958 18.7715 6.18455 19.392 7.32901 20.1435C7.8081 20.4581 8.05467 20.6755 9.11376 21.4584C10.1729 22.2413 12.0303 23.5929 13.027 24.3468C14.3801 25.3702 14.5939 25.8452 14.8745 26.1896C15.3307 26.7496 15.9018 27.0713 16.2525 27.4966C17.3659 28.8472 17.3694 29.2312 17.5439 29.6141C17.8399 30.2635 18.2557 30.688 18.3979 31.0075C18.4204 31.0579 18.3815 31.1188 18.3401 31.0486C17.9576 30.3999 18.1972 29.4887 18.3941 29.0831C18.609 28.6404 18.6134 28.3187 18.6225 28.201C18.6467 27.8907 19.0265 27.5792 19.2016 27.1565C19.4004 26.6765 19.4823 26.3935 20.1727 25.5186C20.4213 25.2036 21.012 24.4649 22.0931 23.333C22.6169 22.7847 23.1922 22.3902 23.6064 22.1072C24.2618 21.6596 24.7125 21.5108 25.0605 21.321C25.2701 21.2067 25.4572 20.9222 26.244 19.782C27.0308 18.6418 28.3887 16.6204 29.199 15.446C30.0093 14.2716 30.231 14.0055 30.603 13.6943C31.4508 12.9851 32.1158 12.6538 32.2545 12.6542C32.3048 12.6543 32.2921 12.7458 32.2055 12.7754C31.7514 12.9307 31.4066 12.5978 30.4646 12.1996C29.9446 11.9799 29.1361 11.4584 28.5597 11.1498C27.9834 10.8412 27.6837 10.7194 27.0002 10.359C26.3166 9.9985 25.2583 9.40299 24.5643 8.97394C23.5443 8.34337 23.1385 7.7197 22.9145 7.18374C22.8263 6.97277 22.7557 6.90055 22.1034 6.32698C21.4512 5.75342 20.2106 4.68452 19.331 3.98613C18.0119 2.93873 17.4181 2.66595 17.2587 2.58514C16.9975 2.45276 16.755 2.24721 16.5936 2.15192C16.5182 2.10742 16.5418 2.34817 16.542 2.99639C16.5422 3.5787 16.4619 4.67407 16.3398 5.72396C16.2178 6.77385 16.0358 7.74473 15.9213 8.31495C15.7782 9.028 15.6609 9.24365 15.4997 9.36202C15.1381 9.62741 14.3946 9.43236 13.7934 9.34473C13.7034 9.33161 13.6798 9.25258 13.1519 9.7646C12.624 10.2766 11.6015 11.3537 10.986 11.985C10.2075 12.7835 9.90645 12.9911 9.68886 13.1009C9.24961 13.3226 8.76132 13.182 8.4747 13.3113C8.40958 13.3407 8.36392 13.3837 7.61951 14.292C6.8751 15.2003 5.43966 16.9838 4.69634 17.862C3.95302 18.7403 3.9453 18.6592 3.97466 18.531" stroke="#35F923" stroke-opacity="0.2" stroke-width="2" stroke-linecap="round"/>
<path d="M3.01003 16.7297C3.42003 16.7422 4.32964 16.8534 4.87464 17.0613C5.1677 17.1732 5.83824 17.8829 6.87861 18.7712C7.31412 19.143 7.53125 19.3895 8.48297 20.2982C9.43468 21.207 11.1065 22.7795 12 23.6517C13.213 24.8358 13.365 25.3337 13.5998 25.7104C13.9816 26.3228 14.5076 26.7132 14.8017 27.1789C15.7354 28.6576 15.6904 29.039 15.8151 29.4406C16.0266 30.1219 16.3854 30.5949 16.4862 30.9295C16.5021 30.9823 16.4558 31.0379 16.4236 30.9631C16.1262 30.2718 16.479 29.3977 16.7257 29.0199C16.9949 28.6075 17.0399 28.2889 17.0639 28.1732C17.1271 27.8684 17.5432 27.6068 17.7704 27.2092C18.0284 26.7578 18.1454 26.4873 18.941 25.7054C19.2274 25.4239 19.9069 24.7647 21.1226 23.7766C21.7115 23.2979 22.3322 22.9783 22.7789 22.7492C23.4856 22.3869 23.9516 22.2954 24.3209 22.1505C24.5432 22.0633 24.7649 21.8044 25.6896 20.7714C26.6143 19.7383 28.2171 17.9022 29.1695 16.8381C30.1219 15.7741 30.3754 15.5378 30.7838 15.2754C31.7146 14.6776 32.4163 14.4318 32.5538 14.4495C32.6037 14.4559 32.5795 14.5451 32.4899 14.5637C32.0197 14.6611 31.7197 14.2878 30.8355 13.7753C30.3474 13.4924 29.6113 12.8743 29.0785 12.4962C28.5458 12.1182 28.2638 11.9601 27.6313 11.5172C26.9987 11.0743 26.0241 10.3516 25.3898 9.83937C24.4576 9.08659 24.1339 8.41725 23.9795 7.8576C23.9187 7.6373 23.8578 7.55685 23.2832 6.90648C22.7086 6.25612 21.613 5.04096 20.8287 4.23842C19.6525 3.03482 19.0979 2.69014 18.9499 2.59008C18.7075 2.42618 18.493 2.19202 18.3448 2.07735C18.2757 2.0238 18.2687 2.26558 18.1869 2.9087C18.1134 3.48643 17.8952 4.56311 17.6414 5.58947C17.3876 6.61583 17.0843 7.55633 16.8986 8.10776C16.6664 8.79731 16.5229 8.99663 16.3479 9.09395C15.9556 9.31216 15.2427 9.02593 14.6573 8.86401C14.5697 8.83978 14.5563 8.75844 13.9678 9.20057C13.3794 9.64271 12.2288 10.5837 11.5383 11.1333C10.665 11.8284 10.3401 11.9968 10.1103 12.0786C9.64649 12.2438 9.17985 12.0434 8.87914 12.1359C8.81083 12.157 8.7601 12.1939 7.90673 13.0022C7.05335 13.8104 5.40376 15.4008 4.55527 16.1794C3.70677 16.958 3.70936 16.8767 3.75471 16.7531" stroke="#5123F9" stroke-opacity="0.2" stroke-width="2" stroke-linecap="round"/>
<path d="M3.06043 14.4374C3.46371 14.5119 4.34556 14.7598 4.85219 15.0479C5.12463 15.2028 5.67819 16.0059 6.56979 17.0415C6.94304 17.4751 7.11974 17.7515 7.92058 18.7939C8.72142 19.8363 10.1319 21.6439 10.8808 22.6414C11.8975 23.9955 11.9712 24.5106 12.1454 24.9185C12.4286 25.5816 12.8883 26.0471 13.1074 26.552C13.8028 28.1549 13.6997 28.5251 13.7612 28.9409C13.8655 29.6462 14.1474 30.1681 14.1955 30.514C14.2031 30.5686 14.1488 30.6166 14.1285 30.5378C13.9408 29.8095 14.424 28.9991 14.7258 28.6632C15.0553 28.2964 15.1487 27.9883 15.1902 27.8777C15.2995 27.586 15.751 27.3906 16.0366 27.0321C16.361 26.6251 16.5182 26.3755 17.4247 25.7234C17.751 25.4887 18.5239 24.9402 19.8772 24.148C20.5328 23.7642 21.1954 23.5424 21.672 23.3838C22.4262 23.1328 22.9008 23.1131 23.288 23.0259C23.5212 22.9734 23.78 22.7512 24.8527 21.8705C25.9254 20.9897 27.7917 19.4181 28.8965 18.511C30.0014 17.6038 30.2882 17.4087 30.7322 17.2114C31.744 16.7617 32.4752 16.6251 32.6084 16.6635C32.6568 16.6774 32.6191 16.7619 32.5277 16.7666C32.048 16.7916 31.809 16.3772 31.0139 15.7367C30.575 15.3831 29.9425 14.6605 29.4742 14.2062C29.0058 13.7518 28.7514 13.5528 28.1944 13.0192C27.6373 12.4856 26.7853 11.6235 26.2372 11.0212C25.4316 10.1359 25.2146 9.42531 25.148 8.8488C25.1218 8.62186 25.074 8.53312 24.6061 7.80325C24.1382 7.07339 23.2423 5.70637 22.5906 4.79432C21.6132 3.42648 21.1181 3.00176 20.9873 2.88044C20.7729 2.68171 20.5969 2.41776 20.4681 2.28198C20.408 2.21857 20.3639 2.45645 20.1842 3.07963C20.0228 3.63944 19.6416 4.67042 19.233 5.64626C18.8243 6.62211 18.38 7.50559 18.1117 8.02241C17.7762 8.66866 17.6037 8.84388 17.4159 8.91353C16.9946 9.0697 16.3341 8.67873 15.7804 8.42996C15.6976 8.39272 15.6968 8.3103 15.0473 8.65803C14.3977 9.00575 13.116 9.76129 12.3491 10.1997C11.3792 10.7542 11.0322 10.8714 10.7925 10.9174C10.3088 11.0103 9.87839 10.7415 9.56698 10.7874C9.49624 10.7978 9.44043 10.8266 8.47279 11.496C7.50516 12.1655 5.63041 13.4871 4.67216 14.1279C3.71391 14.7687 3.72897 14.6887 3.79279 14.5734" stroke="#F92323" stroke-opacity="0.2" stroke-width="2" stroke-linecap="round"/>
<path d="M3.19869 18.4075C3.6075 18.374 4.52394 18.3829 5.08904 18.5286C5.39292 18.6069 6.13964 19.2372 7.27409 20.0035C7.74899 20.3243 7.99267 20.5449 9.04134 21.3415C10.09 22.1381 11.9295 23.5137 12.9161 24.2805C14.2556 25.3215 14.4632 25.7992 14.7392 26.1472C15.188 26.7131 15.7548 27.0422 16.0998 27.4721C17.1953 28.837 17.1937 29.221 17.3632 29.6061C17.6506 30.2594 18.0607 30.6893 18.1988 31.0105C18.2205 31.0612 18.1809 31.1217 18.1404 31.0509C17.7665 30.3972 18.0181 29.4893 18.2203 29.0863C18.4411 28.6464 18.4496 28.3248 18.4604 28.2072C18.4886 27.8973 18.8725 27.5907 19.0531 27.1703C19.2583 26.6929 19.3439 26.4111 20.0458 25.5452C20.2985 25.2335 20.8989 24.5025 21.9949 23.3848C22.5258 22.8433 23.1063 22.4563 23.5242 22.1788C24.1854 21.7397 24.6381 21.5968 24.9886 21.4115C25.1996 21.3 25.3905 21.018 26.1922 19.8881C26.994 18.7582 28.3784 16.7546 29.2042 15.5908C30.0299 14.4271 30.255 14.1639 30.6311 13.8576C31.4882 13.1595 32.1575 12.8368 32.2962 12.839C32.3466 12.8398 32.3326 12.9311 32.2457 12.9596C31.7895 13.109 31.4491 12.7716 30.5124 12.3612C29.9954 12.1347 29.1938 11.6028 28.6216 11.2867C28.0494 10.9706 27.7513 10.845 27.0726 10.4757C26.3939 10.1063 25.3435 9.49713 24.6552 9.05908C23.6436 8.4153 23.2461 7.7864 23.0292 7.24758C22.9438 7.03547 22.8742 6.96234 22.2295 6.38034C21.5848 5.79834 20.3584 4.71339 19.4882 4.00363C18.183 2.93916 17.5929 2.65868 17.4345 2.57579C17.1751 2.44003 16.9353 2.23135 16.7752 2.13397C16.7003 2.08849 16.7208 2.32952 16.7124 2.97769C16.7049 3.55995 16.6102 4.65419 16.4743 5.7024C16.3384 6.75061 16.1437 7.71904 16.0217 8.28772C15.8691 8.99885 15.7491 9.21295 15.5863 9.32921C15.2212 9.58988 14.4804 9.38517 13.8803 9.28973C13.7905 9.27544 13.768 9.19611 13.2334 9.70122C12.6988 10.2063 11.6622 11.27 11.0384 11.8933C10.2494 12.6816 9.94564 12.8852 9.72662 12.9922C9.28448 13.2081 8.79809 13.0612 8.50979 13.1868C8.44429 13.2153 8.39807 13.2577 7.64174 14.1562C6.88541 15.0548 5.42658 16.8194 4.67173 17.688C3.91689 18.5565 3.91024 18.4753 3.94129 18.3475" stroke="#35F923" stroke-opacity="0.2" stroke-width="2" stroke-linecap="round"/>
<path d="M3.0005 16.5338C3.41031 16.5516 4.31837 16.6746 4.86058 16.8897C5.15214 17.0053 5.81326 17.7237 6.84182 18.6254C7.2724 19.0029 7.48626 19.2521 8.4259 20.1732C9.36555 21.0943 11.0165 22.6884 11.8984 23.5722C13.0956 24.7719 13.2411 25.2717 13.471 25.6514C13.8446 26.2688 14.3654 26.666 14.6533 27.1355C15.5675 28.6262 15.5174 29.007 15.6368 29.4102C15.8393 30.0941 16.1919 30.5718 16.2882 30.9077C16.3034 30.9607 16.2564 31.0157 16.2252 30.9405C15.9369 30.2453 16.3013 29.3759 16.5529 29.0014C16.8275 28.5925 16.8767 28.2745 16.9022 28.1592C16.9694 27.8552 17.389 27.599 17.6214 27.2044C17.8853 26.7564 18.0059 26.4874 18.8117 25.7159C19.1018 25.4382 19.7899 24.7879 21.0185 23.8157C21.6137 23.3447 22.2386 23.0332 22.6882 22.81C23.3997 22.4568 23.8669 22.3715 24.238 22.2314C24.4615 22.147 24.6865 21.8911 25.6248 20.8701C26.5631 19.8492 28.1899 18.0341 29.1563 16.9825C30.1227 15.9309 30.3793 15.6979 30.7911 15.4409C31.7297 14.8553 32.4345 14.6186 32.5718 14.6381C32.6217 14.6452 32.5963 14.734 32.5064 14.7514C32.035 14.8427 31.7399 14.4655 30.8626 13.9416C30.3782 13.6524 29.6503 13.0247 29.1226 12.6398C28.5949 12.2549 28.315 12.0931 27.6884 11.642C27.0617 11.191 26.0967 10.4556 25.4693 9.93518C24.5471 9.17033 24.2322 8.49684 24.0852 7.93523C24.0273 7.71416 23.9674 7.63292 23.4015 6.97513C22.8355 6.31735 21.756 5.08805 20.9824 4.27538C19.8222 3.05657 19.2722 2.70471 19.1255 2.60274C18.8853 2.4357 18.6739 2.19876 18.5273 2.08218C18.4588 2.02773 18.4486 2.2694 18.3584 2.9114C18.2773 3.48812 18.0449 4.56188 17.7776 5.58485C17.5102 6.60782 17.1946 7.54429 17.0016 8.09326C16.7603 8.77973 16.6142 8.97717 16.4379 9.0722C16.0428 9.28528 15.3337 8.98981 14.7505 8.82029C14.6632 8.79492 14.6509 8.71341 14.0567 9.14785C13.4624 9.58229 12.2995 10.5083 11.6019 11.0488C10.7195 11.7325 10.3923 11.8966 10.1615 11.9754C9.69557 12.1346 9.2316 11.9281 8.9297 12.0168C8.86112 12.0369 8.80991 12.0732 7.94595 12.8703C7.08198 13.6674 5.41156 15.2362 4.55287 16.0037C3.69418 16.7712 3.69784 16.6899 3.74481 16.5669" stroke="#5123F9" stroke-opacity="0.2" stroke-width="2" stroke-linecap="round"/>
<path d="M3.02645 16.9866C3.43661 16.992 4.34801 17.0877 4.89652 17.2863C5.19148 17.3931 5.8742 18.0913 6.92979 18.9617C7.37168 19.3261 7.59304 19.5688 8.56035 20.4611C9.52765 21.3535 11.2265 22.8973 12.1349 23.7541C13.3682 24.9173 13.5288 25.4125 13.7701 25.7851C14.1625 26.391 14.6951 26.7723 14.9972 27.2329C15.9564 28.6955 15.918 29.0776 16.0496 29.477C16.2729 30.1546 16.6399 30.6214 16.7464 30.9542C16.7632 31.0067 16.7179 31.0632 16.6844 30.9889C16.3751 30.3028 16.7127 29.4228 16.9528 29.0408C17.2149 28.6239 17.2543 28.3046 17.2763 28.1885C17.3342 27.8827 17.7458 27.614 17.966 27.2126C18.2162 26.7568 18.3285 26.4844 19.1104 25.689C19.3919 25.4027 20.0599 24.732 21.2583 23.7232C21.8388 23.2346 22.4539 22.9044 22.8965 22.6678C23.597 22.2934 24.0613 22.194 24.428 22.0428C24.6488 21.9518 24.8659 21.6892 25.7726 20.6405C26.6793 19.5918 28.2501 17.7286 29.1839 16.6484C30.1178 15.5683 30.3672 15.3277 30.771 15.0584C31.6913 14.4448 32.3886 14.187 32.5264 14.2024C32.5764 14.2079 26.7135 14.1823 26.6242 14.2024C26.1557 14.3078 31.6896 14.0549 30.7967 13.5576C30.3038 13.2831 29.557 12.6776 29.0178 12.3087C28.4786 11.9398 28.194 11.7865 27.5538 11.3545C26.9137 10.9226 25.9267 10.2165 25.2837 9.71523C24.3386 8.97847 24.0033 8.31476 23.8392 7.75783C23.7746 7.5386 23.7123 7.4592 23.1266 6.81873C22.5408 6.17827 21.4243 4.982 20.6263 4.19297C19.4294 3.00961 18.8689 2.67446 18.7192 2.57694C18.4741 2.4172 18.2555 2.18674 18.1054 2.07462C18.0353 2.02225 18.0325 2.26412 17.9618 2.90854C17.8984 3.48743 17.6989 4.56768 17.4629 5.59822C17.2268 6.62877 16.9399 7.5743 16.7638 8.12882C16.5435 8.82223 16.4034 9.02398 16.2302 9.12427C15.8417 9.34913 15.124 9.07512 14.5359 8.92322C14.4478 8.90049 14.433 8.81938 13.8523 9.2715C13.2716 9.72362 12.1374 10.6841 11.4566 11.2454C10.5955 11.9553 10.2735 12.1292 10.0452 12.2149C9.58429 12.388 9.11424 12.1956 8.81519 12.2933C8.74724 12.3155 8.69716 12.3533 7.85791 13.176C7.01865 13.9987 5.39683 15.617 4.56194 16.41C3.72704 17.203 3.72823 17.1216 3.77143 16.9972" stroke="#F92323" stroke-opacity="0.3" stroke-width="2" stroke-linecap="round"/>
<path d="M3.84088 20.8758C4.23805 20.7739 5.14272 20.6283 5.72452 20.6766C6.03737 20.7027 6.88093 21.198 8.12985 21.7621C8.65267 21.9983 8.9305 22.1746 10.1 22.783C11.2696 23.3913 13.3174 24.4371 14.4207 25.0266C15.9186 25.8268 16.2048 26.2626 16.5362 26.5591C17.0752 27.0412 17.69 27.27 18.1035 27.6355C19.4162 28.7961 19.4803 29.1748 19.713 29.5258C20.1079 30.1212 20.5855 30.4757 20.7764 30.7691C20.8065 30.8153 20.7778 30.8816 20.7258 30.8187C20.2457 30.2375 20.3385 29.3003 20.469 28.8691C20.6114 28.3984 20.5649 28.08 20.5554 27.9623C20.5302 27.6521 20.8562 27.2854 20.9624 26.8406C21.0831 26.3356 21.1193 26.0434 21.6631 25.0718C21.8589 24.7221 22.3258 23.9005 23.2149 22.6143C23.6456 21.9912 24.1516 21.5121 24.516 21.1682C25.0926 20.624 25.5143 20.4069 25.8281 20.1653C26.017 20.0198 26.157 19.7098 26.7541 18.4612C27.3512 17.2126 28.3733 15.0048 28.9883 13.7188C29.6033 12.4328 29.7802 12.1355 30.0985 11.7703C30.8239 10.9379 31.4284 10.5072 31.5654 10.486C31.6152 10.4783 31.6171 10.5706 31.5362 10.6133C31.1122 10.8374 30.7191 10.5622 29.7259 10.3156C29.1776 10.1795 28.2968 9.79026 27.6789 9.57518C27.061 9.36009 26.7458 9.28651 26.0138 9.03689C25.2818 8.78726 24.1426 8.36382 23.3895 8.04809C22.2826 7.58406 21.7834 7.03125 21.4776 6.53678C21.3572 6.34214 21.2761 6.28179 20.5413 5.81684C19.8066 5.35188 18.4126 4.48927 17.4338 3.9364C15.9657 3.10724 15.3362 2.93025 15.1659 2.87525C14.8871 2.78516 14.6152 2.61989 14.4407 2.55091C14.3592 2.51869 14.4205 2.75278 14.523 3.39297C14.6151 3.96806 14.7086 5.06239 14.7538 6.1183C14.7989 7.17421 14.7724 8.16141 14.7493 8.74241C14.7204 9.46893 14.6387 9.70015 14.4981 9.84216C14.1829 10.1605 13.4178 10.0836 12.8102 10.0906C12.7192 10.0917 12.6835 10.0173 12.2429 10.6052C11.8023 11.193 10.9624 12.4159 10.4542 13.1352C9.81132 14.045 9.5467 14.2969 9.34914 14.4392C8.9503 14.7265 8.44586 14.6637 8.18319 14.836C8.12351 14.8752 8.0852 14.9247 7.49332 15.9376C6.90144 16.9506 5.7652 18.9354 5.16966 19.9185C4.57412 20.9016 4.55372 20.8228 4.56247 20.6915" stroke="#35F923" stroke-opacity="0.3" stroke-width="2" stroke-linecap="round"/>
<path d="M3.3255 19.0626C3.7324 19.0111 4.64832 18.9794 5.2194 19.1C5.52649 19.1648 6.30074 19.7614 7.46844 20.4768C7.95726 20.7763 8.21059 20.9859 9.29396 21.7353C10.3773 22.4847 12.2767 23.7776 13.2967 24.5C14.6816 25.4806 14.9103 25.9487 15.2017 26.2842C15.6754 26.8297 16.2565 27.1333 16.6204 27.5475C17.776 28.8626 17.7917 29.2463 17.9782 29.6236C18.2947 30.2635 18.7237 30.6748 18.876 30.9896C18.9 31.0392 18.8631 31.1014 18.8195 31.0325C18.4167 30.396 18.6272 29.4779 18.8112 29.0663C19.012 28.6171 19.0062 28.2954 19.0116 28.1775C19.0259 27.8666 19.3956 27.5434 19.5573 27.1154C19.7408 26.6294 19.8137 26.3441 20.4761 25.448C20.7145 25.1254 21.2816 24.3686 22.3263 23.2035C22.8324 22.6391 23.395 22.2268 23.8 21.9311C24.4408 21.4631 24.8866 21.3003 25.2285 21.0998C25.4343 20.979 25.6124 20.6888 26.3626 19.5246C27.1129 18.3604 28.4061 16.2975 29.1788 15.0984C29.9515 13.8992 30.1646 13.6264 30.5266 13.3037C31.3515 12.5684 32.0057 12.2164 32.1444 12.2125C32.1947 12.2111 32.1849 12.3029 32.0993 12.3352C31.6502 12.5046 31.2951 12.1826 30.3409 11.8141C29.8142 11.6107 28.9896 11.1147 28.4038 10.8243C27.818 10.5338 27.5145 10.4215 26.8199 10.0826C26.1253 9.74365 25.0487 9.1815 24.3414 8.77434C23.3019 8.17594 22.8766 7.56526 22.6357 7.03656C22.5409 6.82845 22.468 6.75847 21.7979 6.20556C21.1278 5.65266 19.854 4.62304 18.9527 3.95248C17.6011 2.94681 16.999 2.69271 16.837 2.61691C16.5718 2.49276 16.3229 2.29489 16.1585 2.20469C16.0818 2.16257 16.113 2.40246 16.1337 3.05035C16.1523 3.63237 16.1068 4.72971 16.018 5.78289C15.9293 6.83608 15.7782 7.81215 15.6818 8.38567C15.5613 9.10284 15.451 9.32204 15.2936 9.44539C14.9406 9.72195 14.1913 9.55022 13.5876 9.48141C13.4972 9.47111 13.4711 9.39286 12.9597 9.92112C12.4483 10.4494 11.4604 11.5579 10.8652 12.2081C10.1124 13.0305 9.81805 13.2474 9.60404 13.3639C9.17203 13.5993 8.67953 13.474 8.39715 13.6122C8.33299 13.6436 8.28872 13.688 7.57344 14.6191C6.85817 15.5502 5.47994 17.3776 4.7648 18.2787C4.04967 19.1797 4.03939 19.099 4.06467 18.9698" stroke="#5123F9" stroke-opacity="0.3" stroke-width="2" stroke-linecap="round"/>
<path d="M4.03724 21.399C4.43032 21.2826 5.32888 21.1035 5.91209 21.1303C6.22571 21.1447 7.08728 21.6084 8.35651 22.1259C8.88783 22.3426 9.17208 22.5085 10.3637 23.0731C11.5552 23.6378 13.6409 24.607 14.7656 25.1552C16.2925 25.8994 16.5948 26.3243 16.9372 26.6083C17.4938 27.0701 18.1168 27.276 18.5437 27.6259C19.8991 28.7371 19.9774 29.1132 20.2232 29.4553C20.6401 30.0356 21.1307 30.3723 21.3325 30.6583C21.3643 30.7034 21.3381 30.7707 21.2838 30.7098C20.7821 30.1468 20.8397 29.2068 20.9539 28.7711C21.0785 28.2954 21.0201 27.979 21.0062 27.8617C20.9694 27.5527 21.2814 27.1741 21.3708 26.7257C21.4724 26.2166 21.4977 25.9232 22.0046 24.9322C22.1871 24.5754 22.6228 23.7372 23.463 22.4189C23.8701 21.7804 24.3577 21.2828 24.709 20.9256C25.2648 20.3605 25.678 20.1279 25.9825 19.8749C26.1658 19.7225 26.294 19.4075 26.8438 18.1377C27.3937 16.8679 28.3322 14.6237 28.8984 13.3158C29.4647 12.0079 29.6303 11.7043 29.9347 11.3276C30.6283 10.4689 31.2163 10.0161 31.3524 9.9898C31.4018 9.98027 31.4072 10.0725 31.328 10.1182C30.9127 10.3578 30.5095 10.0973 29.5078 9.8877C28.9548 9.77197 28.06 9.41563 27.4344 9.22357C26.8089 9.03152 26.4911 8.96966 25.7502 8.74732C25.0094 8.52497 23.8551 8.14401 23.0906 7.85639C21.967 7.43367 21.4474 6.89973 21.1233 6.41693C20.9957 6.22687 20.9123 6.16958 20.1607 5.73215C19.409 5.29473 17.9836 4.48433 16.9846 3.96809C15.4865 3.19388 14.8507 3.04032 14.6786 2.99166C14.3965 2.91196 14.1186 2.75687 13.9416 2.6944C13.859 2.66522 13.929 2.89688 14.0555 3.53282C14.1691 4.1041 14.3037 5.19421 14.3884 6.24772C14.4732 7.30122 14.4838 8.28871 14.4825 8.87016C14.4809 9.59725 14.408 9.83134 14.2728 9.97845C13.9697 10.3083 13.2023 10.2597 12.5954 10.2893C12.5045 10.2937 12.466 10.2207 12.0478 10.8244C11.6296 11.4282 10.8362 12.6813 10.3553 13.419C9.74705 14.3519 9.49208 14.6134 9.29999 14.763C8.91222 15.0649 8.40577 15.0207 8.14975 15.2027C8.09159 15.244 8.05516 15.2949 7.50173 16.3291C6.9483 17.3632 5.88737 19.3888 5.32916 20.3932C4.77095 21.3977 4.74759 21.3197 4.75141 21.1882" stroke="#F92323" stroke-opacity="0.3" stroke-width="2" stroke-linecap="round"/>
<path d="M5.98447 24.869C6.33287 24.654 7.15239 24.2466 7.72217 24.1201C8.02857 24.0521 8.98261 24.2745 10.3442 24.4424C10.9142 24.5126 11.2324 24.5985 12.5315 24.8321C13.8307 25.0657 16.0996 25.4562 17.3298 25.6913C19 26.0106 19.4042 26.3417 19.8097 26.5263C20.4691 26.8264 21.1247 26.8624 21.6292 27.0885C23.2311 27.8066 23.4062 28.1491 23.7339 28.415C24.2898 28.866 24.8523 29.0627 25.1228 29.286C25.1654 29.3212 25.1579 29.393 25.0894 29.3483C24.4563 28.9361 24.263 28.0142 24.2578 27.564C24.2521 27.0725 24.1119 26.7825 24.0675 26.673C23.9502 26.3844 24.1509 25.9377 24.1185 25.4817C24.0817 24.964 24.0284 24.6743 24.2551 23.5858C24.3367 23.194 24.5351 22.2714 24.9967 20.7802C25.2203 20.0578 25.559 19.4503 25.8034 19.014C26.19 18.3237 26.5271 17.9914 26.7538 17.6677C26.8904 17.4728 26.9306 17.1354 27.1249 15.7667C27.3191 14.398 27.6304 11.9878 27.8304 10.578C28.0304 9.16828 28.1098 8.8321 28.3037 8.38913C28.7456 7.37955 29.1929 6.7891 29.3173 6.72821C29.3625 6.70611 29.3921 6.79368 29.3278 6.85842C28.9905 7.19807 28.5326 7.05208 27.5106 7.11142C26.9464 7.14417 25.9887 7.03404 25.3343 7.0121C24.6799 6.99015 24.357 7.01346 23.5833 6.9924C22.8097 6.97135 21.5951 6.90523 20.7814 6.82737C19.5854 6.71293 18.9427 6.33347 18.5021 5.95231C18.3287 5.80227 18.2331 5.76875 17.3921 5.54301C16.551 5.31728 14.9612 4.90762 13.8607 4.67042C12.2103 4.31469 11.5563 4.33255 11.3772 4.33056C11.084 4.32731 10.7748 4.25027 10.5875 4.23621C10.5001 4.22964 10.629 4.43485 10.9194 5.01539C11.1803 5.5369 11.5988 6.5535 11.9595 7.54779C12.3202 8.54209 12.5919 9.49206 12.7447 10.0534C12.9357 10.7553 12.9272 11.0002 12.8358 11.1774C12.6307 11.5748 11.8774 11.7284 11.2997 11.9154C11.2132 11.9433 11.1567 11.883 10.9131 12.5747C10.6695 13.2664 10.2358 14.6826 9.96716 15.5199C9.62735 16.5788 9.45059 16.8977 9.30486 17.0922C9.01068 17.4847 8.51037 17.5744 8.31153 17.8168C8.26636 17.8718 8.2447 17.9305 7.98457 19.0727C7.72444 20.215 7.2372 22.4463 6.9646 23.5612C6.692 24.6761 6.64881 24.6069 6.61767 24.4791" stroke="#35F923" stroke-opacity="0.3" stroke-width="2" stroke-linecap="round"/>
<path d="M4.94718 23.2916C5.32 23.1217 6.18456 22.8197 6.76582 22.7653C7.07839 22.7361 7.99675 23.0757 9.32634 23.412C9.88293 23.5528 10.1877 23.6776 11.4471 24.0714C12.7064 24.4652 14.908 25.1355 16.0987 25.5223C17.7154 26.0473 18.0745 26.4261 18.4535 26.6598C19.0697 27.0398 19.7155 27.1573 20.1874 27.4446C21.6859 28.3567 21.8163 28.7183 22.1078 29.023C22.6022 29.5398 23.1354 29.805 23.3755 30.0603C23.4133 30.1005 23.3968 30.1708 23.3345 30.118C22.7586 29.6301 22.6833 28.6914 22.7351 28.244C22.7916 27.7558 22.6892 27.4505 22.6589 27.3363C22.579 27.0354 22.8347 26.6173 22.8602 26.1609C22.8891 25.6426 22.8729 25.3487 23.2354 24.297C23.3659 23.9184 23.6794 23.0279 24.3259 21.6061C24.6391 20.9173 25.052 20.3569 25.3495 19.9545C25.8204 19.3178 26.1968 19.0302 26.4627 18.7374C26.6228 18.561 26.7054 18.2313 27.0712 16.8977C27.437 15.564 28.0505 13.2117 28.4272 11.8381C28.804 10.4644 28.9252 10.1408 29.1736 9.72552C29.7397 8.77905 30.2581 8.24905 30.3892 8.20416C30.4368 8.18786 30.4551 8.27843 30.3831 8.33464C30.0055 8.62953 29.5697 8.4276 28.5483 8.35901C27.9844 8.32115 27.0483 8.09246 26.4018 7.98909C25.7554 7.88571 25.4321 7.86855 24.6672 7.75119C23.9023 7.63382 22.7057 7.41676 21.9083 7.23803C20.7363 6.97536 20.1466 6.51875 19.7577 6.08567C19.6046 5.91518 19.5141 5.87001 18.7082 5.54118C17.9024 5.21234 16.377 4.60767 15.3152 4.23511C13.7228 3.67637 13.0717 3.61252 12.8943 3.58823C12.6038 3.54844 12.3068 3.43344 12.1228 3.39614C12.0369 3.37872 12.1388 3.59838 12.3535 4.21054C12.5464 4.76046 12.833 5.8212 13.0652 6.85261C13.2973 7.88402 13.4467 8.86035 13.5273 9.43627C13.628 10.1564 13.5887 10.3984 13.4755 10.5628C13.2219 10.9314 12.4551 10.9899 11.8583 11.1033C11.7689 11.1203 11.7205 11.0533 11.3914 11.7092C11.0622 12.3651 10.4529 13.716 10.0805 14.5131C9.6095 15.5213 9.39382 15.8156 9.22466 15.9904C8.88317 16.3431 8.37548 16.3697 8.14756 16.5854C8.09579 16.6344 8.06688 16.6898 7.66437 17.7906C7.26187 18.8914 6.49633 21.0443 6.08491 22.1164C5.67349 23.1885 5.63939 23.1144 5.62468 22.9837" stroke="#5123F9" stroke-opacity="0.3" stroke-width="2" stroke-linecap="round"/>
<path d="M3.96604 21.2161C4.36062 21.1047 5.26146 20.9374 5.84427 20.9718C6.15767 20.9902 7.01305 21.4651 8.27535 21.9991C8.80377 22.2226 9.08581 22.3922 10.2698 22.9723C11.4539 23.5524 13.5266 24.5487 14.6439 25.1115C16.1609 25.8755 16.4575 26.3043 16.7961 26.5927C17.3467 27.0617 17.9669 27.2757 18.3892 27.6312C19.7298 28.7598 19.8031 29.1369 20.0443 29.4822C20.4535 30.0679 20.9397 30.4109 21.1377 30.6996C21.1689 30.7451 21.1418 30.8121 21.0883 30.7504C20.5941 30.1809 20.6641 29.2418 20.784 28.8075C20.9149 28.3336 20.8607 28.0164 20.8483 27.8989C20.8156 27.5894 21.1325 27.215 21.2279 26.7678C21.3362 26.26 21.3653 25.967 21.8853 24.9826C22.0725 24.6283 22.5192 23.7958 23.3767 22.4886C23.7921 21.8554 24.2863 21.3642 24.6422 21.0116C25.2054 20.4538 25.6217 20.2266 25.9295 19.9775C26.1148 19.8275 26.2472 19.5142 26.8137 18.2517C27.3802 16.9891 28.3482 14.7574 28.9317 13.457C29.5152 12.1566 29.6848 11.8551 29.9941 11.4824C30.699 10.6328 31.2929 10.1876 31.4293 10.1632C31.4789 10.1543 31.483 10.2465 31.4032 10.2912C30.9848 10.5254 30.5851 10.2597 29.5862 10.0371C29.0348 9.91415 28.1448 9.5462 27.5218 9.34603C26.8988 9.14585 26.5819 9.07987 25.844 8.8479C25.1062 8.61594 23.957 8.22 23.1964 7.92245C22.0785 7.48516 21.566 6.9445 21.2482 6.45752C21.1231 6.26583 21.0406 6.20745 20.2947 5.76029C19.5489 5.31312 18.1343 4.48425 17.1422 3.95507C15.6544 3.16143 15.0207 2.99961 14.8492 2.94872C14.5683 2.86536 14.2924 2.70667 14.1163 2.6419C14.034 2.61165 14.101 2.8442 14.2191 3.48173C14.3251 4.05444 14.4453 5.14621 14.5162 6.20073C14.587 7.25524 14.5846 8.24278 14.5757 8.82417C14.5645 9.55117 14.4884 9.78429 14.3513 9.92963C14.044 10.2555 13.2772 10.197 12.6699 10.2186C12.5791 10.2218 12.5415 10.1483 12.1154 10.7466C11.6892 11.3449 10.8794 12.5876 10.3888 13.3189C9.76831 14.2439 9.50991 14.502 9.31587 14.649C8.92414 14.9459 8.41832 14.8952 8.15992 15.0738C8.10122 15.1143 8.06412 15.1648 7.4971 16.1916C6.93008 17.2185 5.84253 19.2301 5.27111 20.2272C4.6997 21.2243 4.67738 21.146 4.68293 21.0146" stroke="#F92323" stroke-opacity="0.3" stroke-width="2" stroke-linecap="round"/>
<path d="M5.86733 24.7111C6.21853 24.5006 7.04336 24.1039 7.61476 23.9849C7.92203 23.9209 8.87306 24.1557 10.2323 24.3412C10.8013 24.4189 11.1183 24.5089 12.4143 24.7593C13.7103 25.0098 15.9738 25.4298 17.2009 25.6809C18.8667 26.0219 19.2665 26.3582 19.6696 26.5481C20.3249 26.8568 20.98 26.9012 21.4815 27.134C23.0738 27.8728 23.2443 28.2175 23.5685 28.4876C24.1184 28.9459 24.6783 29.1498 24.9457 29.3766C24.9879 29.4124 24.9795 29.4841 24.9116 29.4386C24.284 29.0182 24.1028 28.0938 24.1035 27.6435C24.1043 27.1521 23.968 26.8602 23.925 26.7501C23.8115 26.46 24.0181 26.016 23.9917 25.5596C23.9617 25.0414 23.9122 24.7512 24.1533 23.6656C24.24 23.2749 24.4506 22.355 24.9318 20.8699C25.165 20.1505 25.5117 19.5475 25.7617 19.1144C26.1574 18.4292 26.4989 18.1013 26.7299 17.7806C26.869 17.5875 26.9137 17.2506 27.126 15.8846C27.3383 14.5185 27.6813 12.1125 27.8999 10.7055C28.1185 9.2985 28.2023 8.96337 28.402 8.52296C28.8572 7.51922 29.3123 6.93464 29.4375 6.87537C29.4829 6.85386 29.5113 6.94181 29.4462 7.00571C29.1044 7.34093 28.6485 7.18901 27.6258 7.23504C27.0612 7.26045 26.1051 7.13787 25.4511 7.10742C24.797 7.07697 24.4738 7.09607 23.7005 7.06495C22.9272 7.03384 21.7136 6.95192 20.9009 6.86348C19.7066 6.7335 19.069 6.34571 18.6334 5.95885C18.462 5.80657 18.3669 5.77181 17.5289 5.53515C16.6909 5.29849 15.1066 4.86819 14.0093 4.6167C12.3637 4.23952 11.7095 4.24887 11.5305 4.24456C11.2374 4.2375 10.9292 4.15644 10.7421 4.13994C10.6548 4.13224 10.781 4.33911 11.0637 4.92337C11.3177 5.44823 11.7227 6.47019 12.0703 7.46909C12.4179 8.46799 12.6771 9.42141 12.8224 9.98467C13.0041 10.689 12.9924 10.9338 12.8986 11.1098C12.6884 11.5045 11.9331 11.6483 11.3529 11.8277C11.2661 11.8546 11.2104 11.7934 10.9577 12.4819C10.705 13.1704 10.2527 14.5809 9.97299 15.4146C9.61925 16.469 9.4383 16.7856 9.29002 16.9781C8.99068 17.3668 8.48923 17.45 8.28721 17.6897C8.24132 17.7442 8.21888 17.8026 7.94371 18.9414C7.66854 20.0801 7.15191 22.3049 6.86462 23.4162C6.57734 24.5274 6.53507 24.4577 6.50563 24.3294" stroke="#35F923" stroke-opacity="0.3" stroke-width="2" stroke-linecap="round"/>
<path d="M4.85093 23.1203C5.22597 22.9553 6.09443 22.6646 6.67636 22.6178C6.98929 22.5926 7.9031 22.9441 9.22813 23.2977C9.78282 23.4457 10.086 23.5745 11.34 23.9846C12.594 24.3947 14.7866 25.0937 15.9721 25.4959C17.5817 26.0419 17.9358 26.4253 18.3116 26.664C18.9228 27.052 19.567 27.1778 20.0351 27.4712C21.5214 28.4028 21.647 28.766 21.9345 29.0744C22.4221 29.5976 22.9517 29.8698 23.1884 30.1281C23.2257 30.1689 23.2083 30.2389 23.1466 30.1853C22.5772 29.69 22.5143 28.7503 22.572 28.3037C22.6349 27.8162 22.5366 27.5097 22.5078 27.3951C22.4319 27.0932 22.693 26.6784 22.7246 26.2224C22.7603 25.7045 22.7479 25.4104 23.1243 24.3635C23.2598 23.9867 23.585 23.1004 24.2502 21.687C24.5725 21.0024 24.9927 20.4474 25.2956 20.0489C25.7747 19.4184 26.155 19.1357 26.4247 18.8464C26.5871 18.6721 26.6741 18.3435 27.0574 17.0147C27.4407 15.686 28.0853 13.3418 28.4801 11.9732C28.8749 10.6046 29.0004 10.2826 29.2542 9.87055C29.8327 8.93152 30.3581 8.40832 30.4898 8.36514C30.5376 8.34946 30.5547 8.44026 30.482 8.49552C30.1005 8.78548 29.6674 8.5779 28.647 8.49603C28.0837 8.45083 27.1506 8.20999 26.5056 8.09821C25.8606 7.98644 25.5375 7.96508 24.7742 7.83777C24.011 7.71046 22.8174 7.47786 22.0223 7.28877C20.8539 7.01088 20.2703 6.54664 19.8872 6.10853C19.7363 5.93607 19.6464 5.88972 18.8449 5.55043C18.0435 5.21115 16.5262 4.58668 15.4694 4.20034C13.8845 3.62093 13.2343 3.54863 13.0573 3.52203C12.7674 3.47847 12.4719 3.35961 12.2884 3.31992C12.2027 3.30138 12.3017 3.52235 12.5083 4.13725C12.6939 4.68963 12.9665 5.75401 13.185 6.78835C13.4036 7.82269 13.5401 8.80088 13.6131 9.3778C13.7043 10.0992 13.6617 10.3406 13.5464 10.5036C13.2879 10.8689 12.5205 10.9173 11.9222 11.023C11.8327 11.0388 11.7851 10.9712 11.4474 11.6228C11.1096 12.2743 10.4825 13.6172 10.0996 14.4094C9.61535 15.4114 9.3958 15.7028 9.22435 15.8754C8.87823 16.2236 8.37024 16.2436 8.1395 16.4563C8.08708 16.5046 8.05745 16.5597 7.64045 17.6552C7.22346 18.7506 6.4296 20.8934 6.00407 21.96C5.57855 23.0266 5.54543 22.9522 5.53244 22.8213" stroke="#5123F9" stroke-opacity="0.3" stroke-width="2" stroke-linecap="round"/>
<path d="M3.28983 6.3769C3.68975 6.21968 4.18317 6.2326 5.13544 6.4002C5.15283 6.40307 5.2271 6.40792 5.50409 6.34229C5.73799 6.28685 6.14096 6.17408 6.57809 6.10872C6.98168 6.04844 7.42871 6.02855 7.85861 6.008C8.11303 5.99583 8.37371 5.98165 8.64573 5.96283C8.70692 5.89673 8.76977 5.84092 8.83618 5.79872C8.9078 5.73159 8.98367 5.68057 9.05887 5.64186C9.24589 5.44144 9.47207 5.36285 9.64003 5.33456L9.8124 5.31923L10.0533 5.33149C10.0876 5.33424 10.1226 5.33726 10.1543 5.34005C10.1875 5.34297 10.2195 5.34477 10.2506 5.34731C10.2581 5.19888 10.2977 4.97565 10.4645 4.76261C10.7865 4.35156 11.241 4.35659 11.4098 4.37815C11.4972 4.38933 11.5834 4.40572 11.6474 4.41905L11.8401 4.46078C11.9049 4.4744 11.9605 4.48446 12.0087 4.49203C12.017 4.37573 12.0594 4.07477 12.3214 3.8223C12.6035 3.55066 12.9263 3.52046 13.1396 3.54138L13.3101 3.57192L13.5398 3.64632C13.5723 3.65802 13.6057 3.671 13.6357 3.68206C13.6667 3.69349 13.6959 3.70363 13.7249 3.71412C13.8463 3.75803 13.9342 3.78569 14.0032 3.79987C14.0674 3.81307 14.1699 3.83278 14.3201 3.86933C15.9093 3.16466 18.0105 2.27542 19.4385 1.71224C20.3569 1.35005 20.9831 1.13436 21.4229 0.989374C21.6947 0.899777 21.8567 0.846407 21.9624 0.810764C22.0932 0.385229 22.4982 0.0850438 22.9635 0.106364C23.515 0.131952 23.9424 0.599566 23.917 1.15114C23.9139 1.21865 23.9116 1.523 23.7618 1.8292C23.5922 2.17583 23.3086 2.40132 23.0018 2.54895C22.7585 2.66597 22.4094 2.77031 22.0495 2.88895C21.6398 3.024 21.0497 3.22673 20.1724 3.57272C19.2917 3.92008 18.1456 4.39549 17.0286 4.87232C17.9344 5.27516 19.0113 5.78695 19.7047 6.12411C19.9996 6.01588 20.219 5.93169 20.4341 5.84667C20.6759 5.75106 20.9172 5.65574 21.2432 5.53995C21.5724 5.42302 21.9936 5.29499 22.3444 5.1834C22.7249 5.06234 23.0289 4.9587 23.2203 4.87035C23.4783 4.75117 23.7039 4.66014 23.8896 4.58712C24.0302 4.53184 24.1299 4.49199 24.2124 4.45805C24.2191 4.44227 24.224 4.42542 24.2312 4.40974C24.2501 4.36869 24.2926 4.28042 24.3627 4.18381L24.4416 4.08561L24.5414 3.98971C24.7886 3.78324 25.1331 3.69148 25.4763 3.78671C25.6017 3.82153 25.7066 3.87594 25.7938 3.93778C26.0319 4.04613 26.1787 4.22112 26.2554 4.3481C26.3395 4.48753 26.3846 4.63908 26.4013 4.79124C26.63 4.71147 26.8895 4.71041 27.1351 4.81323C27.2541 4.8631 27.3509 4.92924 27.4293 5.0008C27.6525 5.13806 27.7748 5.33089 27.835 5.46665C27.9293 5.67984 27.9482 5.90746 27.9065 6.12063C28.1893 6.00844 28.5222 6.01815 28.811 6.18985C28.9199 6.25462 29.0048 6.33244 29.0718 6.41259C29.1549 6.48066 29.2201 6.55528 29.2707 6.63026C29.5172 6.8103 29.6228 7.05122 29.6636 7.21028C29.72 7.43011 29.7016 7.6515 29.6302 7.85097C29.9232 7.79203 30.2433 7.8562 30.4956 8.06884C30.7524 8.28541 30.8338 8.56239 30.8554 8.73536C30.8957 9.05884 30.785 9.36649 30.5871 9.59539L30.6422 9.57794L30.7778 9.55188C31.0988 9.50987 31.4399 9.61706 31.6786 9.88384C31.9028 10.1345 31.9449 10.4196 31.942 10.5935C31.9358 10.9694 31.7349 11.299 31.4465 11.4947C31.3312 11.5728 31.2144 11.6296 31.1004 11.6738C30.9122 11.8737 30.6678 12.1649 30.4032 12.5452C30.214 12.8171 30.1083 13.01 29.6314 14.3662C29.3962 15.0351 29.0841 15.9451 28.7721 16.8555C28.461 17.763 28.149 18.6718 27.9175 19.3303C27.693 19.9685 27.5423 20.4058 27.4271 20.6954L27.4256 20.697C27.5062 21.4172 27.5822 21.8862 27.6238 22.1291C27.7123 22.6467 27.786 22.924 27.8511 23.1101C27.9183 23.3018 27.9798 23.4145 28.1076 23.6819C28.266 24.0138 28.3338 24.3738 28.3682 24.5259C28.3793 24.5748 28.3882 24.6092 28.3946 24.6331C28.5371 24.7843 28.8114 25.1024 29.0229 25.6221C29.0662 25.7285 29.1768 25.9294 29.3371 26.1061C29.3938 26.1686 29.4491 26.2166 29.4987 26.2556C29.6044 26.2739 29.7249 26.2971 29.8441 26.3359C30.0255 26.3951 30.1816 26.5007 30.3014 26.6314C30.4089 26.7488 30.5509 26.9582 30.5744 27.2534C30.597 27.5393 30.4934 27.8546 30.253 28.0797C30.162 28.2076 30.0385 28.3199 29.8794 28.3998C29.5956 28.5422 29.3324 28.5134 29.2063 28.4893C29.2221 28.5671 29.2322 28.6522 29.2278 28.7443C29.2142 29.0306 29.0713 29.3303 28.8041 29.5238C28.6978 29.6391 28.5622 29.7357 28.3945 29.7951C28.067 29.911 27.7885 29.8278 27.6833 29.7905L27.4951 29.7123C27.533 29.8438 27.5564 30.0072 27.5212 30.1921C27.4675 30.4736 27.2846 30.7516 26.9919 30.9061C26.9134 30.9704 26.8239 31.0248 26.7226 31.0645C26.5887 31.1874 26.4186 31.2817 26.2129 31.3186C25.8708 31.3796 25.6099 31.2528 25.5119 31.1986L25.3587 31.1026C25.3716 31.2346 25.3656 31.3923 25.3038 31.5607C25.1785 31.9018 24.8493 32.2096 24.3911 32.2335C24.0434 32.2514 23.7997 32.0924 23.7093 32.0263L23.5192 31.8712C23.4546 31.8124 23.3956 31.75 23.3397 31.6869C23.3365 31.6849 23.3333 31.6832 23.3301 31.6812C23.3379 31.7109 23.3473 31.74 23.3524 31.77C23.3791 31.9265 23.3831 32.1776 23.2443 32.4369C23.0731 32.7564 22.7045 33.0164 22.2465 32.9763C21.8992 32.9457 21.6808 32.7537 21.6003 32.6754L21.4331 32.4956C21.3773 32.4283 21.3275 32.3581 21.281 32.2878C21.2548 32.2662 21.2256 32.2424 21.194 32.216C20.9679 32.0274 20.6701 31.7682 20.3838 31.4234C20.2901 31.3105 20.197 31.1759 20.1518 31.1138C20.0958 31.0369 20.0364 30.9604 19.951 30.8675C19.7762 30.6773 19.4532 30.3782 18.7742 29.898C18.6429 29.8051 18.4725 29.7274 18.1493 29.5792C17.8587 29.4459 17.4754 29.2668 17.0972 28.9961C16.9822 28.9137 16.8541 28.807 16.7762 28.7456C16.7453 28.7212 16.7127 28.6977 16.6793 28.6725C16.574 28.6937 16.4731 28.7146 16.377 28.7337C15.019 29.0045 14.7749 29.0245 14.2524 29.1591C13.5699 29.3349 12.968 29.4618 12.5446 29.558C12.3255 29.6079 12.1648 29.6478 12.0486 29.6818C12.0088 29.6934 11.9814 29.7026 11.9647 29.7085C11.8298 29.8057 11.6575 29.9576 11.476 30.1389C11.4255 30.224 11.3508 30.3253 11.2378 30.4163C11.2151 30.4345 11.1913 30.451 11.1675 30.467C11.0534 30.5952 10.9603 30.7064 10.904 30.7816C10.5723 31.2242 9.9452 31.3146 9.50392 30.9839C9.50066 30.9815 9.49776 30.9785 9.49454 30.9761C9.43655 30.9474 9.37987 30.9131 9.32666 30.8721C9.05419 30.662 8.91924 30.3382 8.93932 30.0181C8.58276 30.1647 8.15876 30.1001 7.8651 29.8162C7.86187 29.8131 7.85908 29.8094 7.8559 29.8062C7.80221 29.7707 7.7508 29.7296 7.70338 29.6826C7.39179 29.3733 7.32897 28.9078 7.5134 28.5326C7.08834 28.7749 6.54129 28.6786 6.2329 28.2839C6.23024 28.2805 6.22722 28.277 6.22462 28.2735C6.17631 28.2309 6.13155 28.182 6.09107 28.1288C6.06922 28.1 6.04925 28.0704 6.03101 28.0401C5.95858 27.9837 5.89185 27.9171 5.8354 27.839C5.58432 27.4914 5.59135 27.0353 5.81875 26.6975C5.36719 26.8491 4.86003 26.6639 4.62489 26.2342C4.36102 25.7514 4.54086 25.1447 5.02674 24.8787C5.10726 24.8347 5.20974 24.7836 5.32737 24.728C5.31744 24.7294 5.30727 24.7324 5.29706 24.7336C5.26839 24.7368 5.23953 24.7383 5.21107 24.7391C5.04615 24.7861 4.908 24.8292 4.81992 24.8625C4.30159 25.0585 3.72348 24.8 3.52879 24.2853C3.33417 23.7705 3.59648 23.194 4.11486 22.998C4.23 22.9545 4.38574 22.9036 4.56563 22.8501C4.62048 22.7398 4.69073 22.5982 4.77576 22.4159C5.25836 21.3811 6.16485 19.3046 6.6529 18.2135C6.89018 17.683 7.02612 17.3831 7.11058 17.2107C7.17251 17.0843 7.25802 16.906 7.42172 16.7452L7.49827 16.6783L7.63995 16.5743C7.78142 16.4828 7.91749 16.4266 8.01277 16.3909C8.13134 16.3466 8.28125 16.3014 8.34617 16.2808C8.53044 16.2222 8.56932 16.1935 8.58067 16.1833C8.63087 16.138 8.80144 15.9821 9.33339 15.0236C9.44669 14.8194 9.58174 14.5692 9.72834 14.3015C9.75407 14.213 9.78154 14.1286 9.81175 14.0494C9.48024 13.6193 9.0511 13.0806 8.57512 12.5409C7.88521 11.7588 7.15325 10.9986 6.76166 10.6465C6.55417 10.46 6.34061 10.276 6.23249 10.1736C6.19795 10.1409 6.05934 10.015 5.96269 9.85053C5.92648 9.78894 5.74963 9.48494 5.84614 9.08204C5.89188 8.89175 5.97808 8.74655 6.07737 8.63744C6.19896 8.43934 6.36842 8.32197 6.50428 8.25544L6.66478 8.19126L6.89832 8.13402C6.91409 8.13069 6.93026 8.12784 6.94607 8.12469C6.94394 8.1097 6.94298 8.09414 6.94144 8.07823C6.91848 8.08127 6.89581 8.08377 6.87356 8.08709C6.54754 8.13583 6.30418 8.2087 5.96549 8.28897C5.67372 8.35812 5.24566 8.45036 4.78845 8.36998C4.32745 8.28885 4.08592 8.2684 3.969 8.26626C3.957 8.26604 3.94693 8.2653 3.93926 8.26536C3.44716 8.41156 2.9168 8.16007 2.72529 7.67355C2.52312 7.1596 2.77588 6.57907 3.28983 6.3769ZM14.8714 9.05373C14.9393 9.67364 14.9836 10.2141 15.0087 10.5874C15.0552 11.2778 15.0557 11.9005 14.6616 12.3967C14.4736 12.6333 14.2354 12.7865 14.0042 12.8893C13.9981 12.9004 13.9928 12.9126 13.9863 12.9237C13.8434 13.1665 13.6457 13.3418 13.4458 13.4731C13.3792 13.6277 13.2902 13.7607 13.191 13.8766C13.1656 13.9141 13.141 13.9514 13.1133 13.9859C13.0348 14.0968 12.9469 14.1939 12.8549 14.2785L12.8547 14.2807C12.8157 14.4391 12.7521 14.5811 12.6767 14.7086C12.6218 14.8154 12.5583 14.9126 12.4893 15.0005C12.4683 15.1474 12.4265 15.2828 12.3724 15.4075C12.2161 15.8361 11.9077 16.146 11.725 16.3149C11.5926 16.4372 11.4226 16.5732 11.2698 16.6944C11.2598 16.8223 11.25 16.9561 11.24 17.0933C11.2336 17.1978 11.227 17.3046 11.2207 17.4126C11.2263 17.5341 11.2329 17.6622 11.2397 17.7944C11.285 18.5015 11.3472 19.3481 11.3864 19.9573C11.4588 21.0837 11.4234 21.5875 11.3119 21.993C11.1855 22.4525 10.9197 22.7788 10.7714 22.9559C10.7455 22.9869 10.7244 23.0129 10.7066 23.0339C10.7298 23.2044 10.768 23.4729 10.8334 23.9033C10.8405 23.95 10.8474 23.9986 10.8551 24.049C10.9783 24.0976 11.1117 24.1518 11.2578 24.2086C12.3368 24.6275 14.1695 25.3286 15.3808 25.8063C15.7907 25.9019 16.1829 25.9945 16.5295 26.0775C16.752 26.1007 16.9688 26.1244 17.1758 26.1465C17.2314 26.151 17.2864 26.1559 17.3408 26.1603C17.5546 26.175 17.7597 26.1886 17.9513 26.2025C18.254 26.1843 18.5469 26.1671 18.8191 26.1518C18.9276 26.1442 19.0331 26.1373 19.135 26.1304C19.2405 26.1107 19.3447 26.0917 19.4471 26.0727C19.9487 25.9724 20.4119 25.8816 20.7822 25.812C21.1424 25.7442 21.4573 25.6985 21.7353 25.6658C21.9198 25.236 22.3067 24.3673 23.0171 23.0555C23.3803 22.385 23.8185 21.8406 24.1398 21.4596C24.3068 21.1346 24.4782 20.8507 24.6239 20.6174C24.6918 20.4339 24.7638 20.263 24.8318 20.1054C24.8389 20.087 24.8462 20.0689 24.8533 20.0508C24.9267 19.8503 24.9996 19.6677 25.0666 19.5072C25.1002 19.3322 25.1402 19.1674 25.1777 19.0134C25.2138 18.8494 25.2489 18.6969 25.2844 18.559C25.2957 18.3939 25.3121 18.2371 25.3288 18.0903C25.3556 17.8028 25.3875 17.5501 25.4152 17.3469C25.5183 16.5922 25.7363 15.949 25.8071 15.7047C25.8033 15.6741 25.7977 15.6206 25.7816 15.5384C25.7321 15.2853 25.6373 14.8962 25.4735 14.2083C25.3146 13.5408 25.0877 12.6201 24.858 11.6884C24.7667 11.3181 24.6765 10.9452 24.5887 10.5875C23.8464 10.4129 22.9013 10.1715 22.228 9.97244C21.7186 9.82185 21.2976 9.64017 20.9448 9.43935C20.5314 9.36655 20.1722 9.26723 19.8571 9.1473C19.6237 9.13393 19.4061 9.10934 19.2027 9.07626C19.1598 9.07187 19.1177 9.06621 19.076 9.06103C18.8632 9.04145 18.6649 9.01165 18.4792 8.97363C18.2725 8.9959 18.0768 9.00682 17.891 9.00979C17.6994 9.0189 17.5181 9.01778 17.3461 9.00901C17.1686 9.0493 16.9984 9.07963 16.8352 9.10292C16.0404 9.24217 15.405 9.18986 14.8714 9.05373Z" fill="#5123F9" fill-opacity="0.3"/>
<path d="M25 6C24.9607 6 24.4092 6 22.6797 6.05373C21.4808 6.09097 19.632 6.2149 17.5776 6.66782C15.5231 7.12074 13.3196 7.91587 12.0468 8.54038C10.3825 9.35697 10.136 10.2954 10.0168 10.7506C9.96588 10.945 9.97626 11.0769 10.0156 10.9499C10.1711 10.4481 10.2934 9.77964 10.5209 9.1955C10.8136 8.44363 11.3254 7.84749 11.7615 7.44635C12.4352 6.82666 13.2517 6.89151 13.8964 6.6421C14.1834 6.53109 14.4035 6.50013 13.9838 6.47799C13.5641 6.45585 12.5017 6.45585 10.6166 6.36989C8.73144 6.28393 6.05578 6.11201 4.62823 6.04493C3.20068 5.97786 3.10231 6.02084 3.04179 6.07522C2.98128 6.12959 2.96161 6.19406 3.15805 6.22727C3.35449 6.26049 3.76764 6.26049 4.25592 6.32496C4.74419 6.38943 5.29506 6.51837 7.41835 6.72448C9.54165 6.93058 13.2207 7.20995 15.2438 7.34313C17.2669 7.4763 17.5227 7.45481 17.6741 7.40076C17.8256 7.34671 17.8649 7.26075 17.8557 7.18423C17.8366 7.02611 16.9987 6.84788 15.0596 6.60954C13.8519 6.4611 12.1762 6.41417 11.2655 6.3484C10.2565 6.23965 9.82066 6.19536 9.34342 6.17387C9.20063 6.15238 9.25965 6.1094 9.38008 6.06512" stroke="#1E1E1E" stroke-opacity="0.1" stroke-width="2" stroke-linecap="round"/>
<line x1="3" y1="-14" x2="29" y2="-14" stroke="#1E1E1E" stroke-width="40"/>
<line x1="28.5" y1="7" x2="28.5" y2="31" stroke="#1E1E1E" stroke-width="3"/>
<path d="M11.4053 21.8125L11.6768 20.9434H11.7959L11.7725 21.1162L11.4961 22H11.3799L11.4053 21.8125ZM11.2227 20.9434L11.4541 21.8223L11.4707 22H11.3486L11.042 20.9434H11.2227ZM12.0557 21.8154L12.2764 20.9434H12.4561L12.1494 22H12.0283L12.0557 21.8154ZM11.8223 20.9434L12.0879 21.7979L12.1182 22H12.0029L11.7188 21.1143L11.6953 20.9434H11.8223ZM13.0801 22.0195C13.0065 22.0195 12.9398 22.0072 12.8799 21.9824C12.8206 21.957 12.7695 21.9215 12.7266 21.876C12.6842 21.8304 12.6517 21.7764 12.6289 21.7139C12.6061 21.6514 12.5947 21.583 12.5947 21.5088V21.4678C12.5947 21.3818 12.6074 21.3053 12.6328 21.2383C12.6582 21.1706 12.6927 21.1133 12.7363 21.0664C12.7799 21.0195 12.8294 20.984 12.8848 20.96C12.9401 20.9359 12.9974 20.9238 13.0566 20.9238C13.1322 20.9238 13.1973 20.9368 13.252 20.9629C13.3073 20.9889 13.3525 21.0254 13.3877 21.0723C13.4229 21.1185 13.4489 21.1732 13.4658 21.2363C13.4827 21.2988 13.4912 21.3672 13.4912 21.4414V21.5225H12.7021V21.375H13.3105V21.3613C13.3079 21.3145 13.2982 21.2689 13.2812 21.2246C13.265 21.1803 13.2389 21.1439 13.2031 21.1152C13.1673 21.0866 13.1185 21.0723 13.0566 21.0723C13.0156 21.0723 12.9779 21.0811 12.9434 21.0986C12.9089 21.1156 12.8792 21.141 12.8545 21.1748C12.8298 21.2087 12.8105 21.25 12.7969 21.2988C12.7832 21.3477 12.7764 21.404 12.7764 21.4678V21.5088C12.7764 21.5589 12.7832 21.6061 12.7969 21.6504C12.8112 21.694 12.8317 21.7324 12.8584 21.7656C12.8857 21.7988 12.9186 21.8249 12.957 21.8438C12.9961 21.8626 13.0404 21.8721 13.0898 21.8721C13.1536 21.8721 13.2077 21.859 13.252 21.833C13.2962 21.807 13.335 21.7721 13.3682 21.7285L13.4775 21.8154C13.4548 21.8499 13.4258 21.8828 13.3906 21.9141C13.3555 21.9453 13.3122 21.9707 13.2607 21.9902C13.21 22.0098 13.1497 22.0195 13.0801 22.0195ZM13.7012 20.5H13.8828V21.7949L13.8672 22H13.7012V20.5ZM14.5967 21.4629V21.4834C14.5967 21.5602 14.5876 21.6315 14.5693 21.6973C14.5511 21.7624 14.5244 21.819 14.4893 21.8672C14.4541 21.9154 14.4111 21.9528 14.3604 21.9795C14.3096 22.0062 14.2513 22.0195 14.1855 22.0195C14.1185 22.0195 14.0596 22.0081 14.0088 21.9854C13.9587 21.9619 13.9163 21.9284 13.8818 21.8848C13.8473 21.8411 13.8197 21.7884 13.7988 21.7266C13.7786 21.6647 13.7646 21.5951 13.7568 21.5176V21.4277C13.7646 21.3496 13.7786 21.2796 13.7988 21.2178C13.8197 21.1559 13.8473 21.1032 13.8818 21.0596C13.9163 21.0153 13.9587 20.9818 14.0088 20.959C14.0589 20.9355 14.1172 20.9238 14.1836 20.9238C14.25 20.9238 14.3089 20.9368 14.3604 20.9629C14.4118 20.9883 14.4548 21.0247 14.4893 21.0723C14.5244 21.1198 14.5511 21.1768 14.5693 21.2432C14.5876 21.3089 14.5967 21.3822 14.5967 21.4629ZM14.415 21.4834V21.4629C14.415 21.4102 14.4102 21.3607 14.4004 21.3145C14.3906 21.2676 14.375 21.2266 14.3535 21.1914C14.332 21.1556 14.3037 21.1276 14.2686 21.1074C14.2334 21.0866 14.1901 21.0762 14.1387 21.0762C14.0931 21.0762 14.0534 21.084 14.0195 21.0996C13.9863 21.1152 13.958 21.1364 13.9346 21.1631C13.9111 21.1891 13.8919 21.2191 13.877 21.2529C13.8626 21.2861 13.8519 21.3206 13.8447 21.3564V21.5918C13.8551 21.6374 13.8721 21.6813 13.8955 21.7236C13.9196 21.7653 13.9515 21.7995 13.9912 21.8262C14.0316 21.8529 14.0814 21.8662 14.1406 21.8662C14.1895 21.8662 14.2311 21.8564 14.2656 21.8369C14.3008 21.8167 14.3291 21.7891 14.3506 21.7539C14.3727 21.7188 14.389 21.6781 14.3994 21.6318C14.4098 21.5856 14.415 21.5361 14.415 21.4834ZM15.0215 20.9434V22H14.8398V20.9434H15.0215ZM14.8262 20.6631C14.8262 20.6338 14.835 20.609 14.8525 20.5889C14.8708 20.5687 14.8975 20.5586 14.9326 20.5586C14.9671 20.5586 14.9935 20.5687 15.0117 20.5889C15.0306 20.609 15.04 20.6338 15.04 20.6631C15.04 20.6911 15.0306 20.7152 15.0117 20.7354C14.9935 20.7549 14.9671 20.7646 14.9326 20.7646C14.8975 20.7646 14.8708 20.7549 14.8525 20.7354C14.835 20.7152 14.8262 20.6911 14.8262 20.6631ZM15.7539 20.9434V21.082H15.1826V20.9434H15.7539ZM15.376 20.6865H15.5566V21.7383C15.5566 21.7741 15.5622 21.8011 15.5732 21.8193C15.5843 21.8376 15.5986 21.8496 15.6162 21.8555C15.6338 21.8613 15.6527 21.8643 15.6729 21.8643C15.6878 21.8643 15.7035 21.863 15.7197 21.8604C15.7367 21.8571 15.7493 21.8545 15.7578 21.8525L15.7588 22C15.7445 22.0046 15.7256 22.0088 15.7021 22.0127C15.6794 22.0173 15.6517 22.0195 15.6191 22.0195C15.5749 22.0195 15.5342 22.0107 15.4971 21.9932C15.46 21.9756 15.4303 21.9463 15.4082 21.9053C15.3867 21.8636 15.376 21.8076 15.376 21.7373V20.6865ZM16.4082 20.9434V21.082H15.8369V20.9434H16.4082ZM16.0303 20.6865H16.2109V21.7383C16.2109 21.7741 16.2165 21.8011 16.2275 21.8193C16.2386 21.8376 16.2529 21.8496 16.2705 21.8555C16.2881 21.8613 16.307 21.8643 16.3271 21.8643C16.3421 21.8643 16.3577 21.863 16.374 21.8604C16.391 21.8571 16.4036 21.8545 16.4121 21.8525L16.4131 22C16.3988 22.0046 16.3799 22.0088 16.3564 22.0127C16.3337 22.0173 16.306 22.0195 16.2734 22.0195C16.2292 22.0195 16.1885 22.0107 16.1514 21.9932C16.1143 21.9756 16.0846 21.9463 16.0625 21.9053C16.041 21.8636 16.0303 21.8076 16.0303 21.7373V20.6865Z" fill="black"/>
<line x1="8.88" y1="12" x2="11.1161" y2="12" stroke="black"/>
<line x1="10.4851" y1="11.8787" x2="12.4851" y2="19.8787" stroke="black"/>
<line x1="12.5031" y1="19.9448" x2="13.5031" y2="10.9448" stroke="black"/>
<line y1="-0.5" x2="2.24" y2="-0.5" transform="matrix(-1 0 0 1 18.24 12.25)" stroke="black"/>
<line y1="-0.5" x2="8.23515" y2="-0.5" transform="matrix(-0.237261 0.971446 0.968782 0.247913 16.9078 12)" stroke="black"/>
<line y1="-0.5" x2="9.05287" y2="-0.5" transform="matrix(-0.107915 -0.99416 -0.993594 0.113006 13.9769 20)" stroke="black"/>
<line x1="16" y1="11.5" x2="21" y2="11.5" stroke="black"/>
<line x1="19.5" y1="12" x2="19.5" y2="19" stroke="black"/>
</g>
<path d="M36.5227 25L33.3409 13.3636H34.7727L37.2045 22.8409H37.3182L39.7955 13.3636H41.3864L43.8636 22.8409H43.9773L46.4091 13.3636H47.8409L44.6591 25H43.2045L40.6364 15.7273H40.5455L37.9773 25H36.5227ZM49.5966 25V13.3636H56.6193V14.6136H51.0057V18.5455H56.2557V19.7955H51.0057V23.75H56.7102V25H49.5966ZM59.1591 25V13.3636H63.2273C64.0379 13.3636 64.7064 13.5038 65.233 13.7841C65.7595 14.0606 66.1515 14.4337 66.4091 14.9034C66.6667 15.3693 66.7955 15.8864 66.7955 16.4545C66.7955 16.9545 66.7064 17.3674 66.5284 17.6932C66.3542 18.0189 66.1231 18.2765 65.8352 18.4659C65.5511 18.6553 65.2424 18.7955 64.9091 18.8864V19C65.2652 19.0227 65.6231 19.1477 65.983 19.375C66.3428 19.6023 66.6439 19.928 66.8864 20.3523C67.1288 20.7765 67.25 21.2955 67.25 21.9091C67.25 22.4924 67.1174 23.017 66.8523 23.483C66.5871 23.9489 66.1686 24.3182 65.5966 24.5909C65.0246 24.8636 64.2803 25 63.3636 25H59.1591ZM60.5682 23.75H63.3636C64.2841 23.75 64.9375 23.572 65.3239 23.2159C65.714 22.8561 65.9091 22.4205 65.9091 21.9091C65.9091 21.5152 65.8087 21.1515 65.608 20.8182C65.4072 20.4811 65.1212 20.2121 64.75 20.0114C64.3788 19.8068 63.9394 19.7045 63.4318 19.7045H60.5682V23.75ZM60.5682 18.4773H63.1818C63.6061 18.4773 63.9886 18.3939 64.3295 18.2273C64.6742 18.0606 64.947 17.8258 65.1477 17.5227C65.3523 17.2197 65.4545 16.8636 65.4545 16.4545C65.4545 15.9432 65.2765 15.5095 64.9205 15.1534C64.5644 14.7936 64 14.6136 63.2273 14.6136H60.5682V18.4773ZM70.9744 13.3636V25H69.5653V13.3636H70.9744ZM73.1634 14.6136V13.3636H81.8906V14.6136H78.2315V25H76.8224V14.6136H73.1634ZM83.429 14.6136V13.3636H92.1562V14.6136H88.4972V25H87.0881V14.6136H83.429Z" fill="white"/>
</svg>
