<svg width="35" height="35" xmlns="http://www.w3.org/2000/svg" viewBox="0 0 35 35">
  <rect width="35" height="35" fill="#1e1e1e"/>
  <path d="M19.5 9.5h-4l-.5 2c-.8.3-1.5.7-2.2 1.2l-1.8-.8-2 3.5 1.5 1.3c-.1.5-.1 1-.1 1.5s0 1 .1 1.5l-1.5 1.3 2 3.5 1.8-.8c.7.5 1.4.9 2.2 1.2l.5 2h4l.5-2c.8-.3 1.5-.7 2.2-1.2l1.8.8 2-3.5-1.5-1.3c.1-.5.1-1 .1-1.5s0-1-.1-1.5l1.5-1.3-2-3.5-1.8.8c-.7-.5-1.4-.9-2.2-1.2l-.5-2zm-2 10c-1.7 0-3-1.3-3-3s1.3-3 3-3 3 1.3 3 3-1.3 3-3 3z"
    fill="#ffffff" fill-opacity="0.8"/>
</svg>
